<svg width="235" height="48" viewBox="0 0 235 48" fill="none" xmlns="http://www.w3.org/2000/svg">
<path d="M16.8539 26.9256C16.7173 26.9256 16.5493 26.9256 16.3497 26.9256C16.1502 26.9151 15.9506 26.9098 15.7511 26.9098C15.562 26.8993 15.394 26.8941 15.2469 26.8941C14.7743 26.8941 14.2912 26.8993 13.7975 26.9098C13.3144 26.9203 12.8365 26.9256 12.3639 26.9256V22.8925C12.8365 22.8925 13.3144 22.8978 13.7975 22.9083C14.2912 22.9188 14.7743 22.924 15.2469 22.924C15.394 22.924 15.562 22.924 15.7511 22.924C15.9506 22.9135 16.1502 22.9083 16.3497 22.9083C16.5493 22.8978 16.7173 22.8925 16.8539 22.8925H20.7294C20.8764 22.8925 21.0445 22.8978 21.2335 22.9083C21.4331 22.9083 21.6274 22.9135 21.8164 22.924C22.016 22.924 22.184 22.924 22.3206 22.924C22.7932 22.924 23.2763 22.9188 23.7699 22.9083C24.2636 22.8978 24.7467 22.8925 25.2193 22.8925V26.9256C24.7467 26.9256 24.2636 26.9203 23.7699 26.9098C23.2763 26.8993 22.7932 26.8941 22.3206 26.8941C22.184 26.8941 22.016 26.8993 21.8164 26.9098C21.6274 26.9098 21.4331 26.9151 21.2335 26.9256C21.0445 26.9256 20.8764 26.9256 20.7294 26.9256H16.8539ZM15.2784 36C14.8898 36.0735 14.4697 36.1208 14.0181 36.1418C13.577 36.1628 13.1936 36.1733 12.868 36.1733C12.574 36.1733 12.1959 36.1628 11.7337 36.1418C11.2716 36.1208 10.8463 36.0735 10.4577 36V14.4798C10.8463 14.4063 11.2716 14.359 11.7337 14.338C12.1959 14.317 12.574 14.3065 12.868 14.3065C13.1936 14.3065 13.577 14.317 14.0181 14.338C14.4697 14.359 14.8898 14.4063 15.2784 14.4798V20.5924C15.2784 21.0335 15.2732 21.4274 15.2627 21.774C15.2522 22.1101 15.2469 22.4934 15.2469 22.924V26.8941C15.2469 27.3142 15.2522 27.6975 15.2627 28.0441C15.2732 28.3907 15.2784 28.7846 15.2784 29.2257V36ZM22.2891 29.2257C22.2891 28.7846 22.2943 28.3907 22.3048 28.0441C22.3153 27.6975 22.3206 27.3142 22.3206 26.8941V22.924C22.3206 22.4934 22.3153 22.1101 22.3048 21.774C22.2943 21.4274 22.2891 21.0335 22.2891 20.5924V14.4798C22.6882 14.4063 23.1083 14.359 23.5494 14.338C23.9905 14.317 24.3739 14.3065 24.6994 14.3065C25.004 14.3065 25.3874 14.317 25.8495 14.338C26.3116 14.359 26.7317 14.4063 27.1098 14.4798V36C26.7002 36.0735 26.2906 36.1208 25.881 36.1418C25.4714 36.1628 25.0933 36.1733 24.7467 36.1733C24.4211 36.1733 24.0325 36.1628 23.5809 36.1418C23.1293 36.1208 22.6987 36.0735 22.2891 36V29.2257ZM32.0746 14.4798C32.4527 14.4063 32.8728 14.359 33.335 14.338C33.8076 14.317 34.1909 14.3065 34.485 14.3065C34.8106 14.3065 35.1939 14.317 35.6351 14.338C36.0867 14.359 36.5068 14.4063 36.8954 14.4798V36C36.5068 36.0735 36.0867 36.1208 35.6351 36.1418C35.1939 36.1628 34.8106 36.1733 34.485 36.1733C34.1909 36.1733 33.8076 36.1628 33.335 36.1418C32.8728 36.1208 32.4527 36.0735 32.0746 36V14.4798ZM59.0938 25.2241C59.0938 26.453 59.0098 27.6345 58.8417 28.7688C58.6737 29.9031 58.3376 30.9639 57.8335 31.9512C57.3398 32.9384 56.5941 33.8207 55.5964 34.5979C55.1132 34.976 54.5303 35.2806 53.8476 35.5116C53.1755 35.7427 52.4875 35.9107 51.7839 36.0158C51.0802 36.1208 50.4342 36.1733 49.8461 36.1733C48.9533 36.1733 48.0816 36.168 47.2309 36.1575C46.3907 36.147 45.5452 36.1313 44.6945 36.1103C43.8542 36.0893 42.9773 36.0683 42.0635 36.0473L41.843 35.8425V14.6373L42.0635 14.4325C42.9668 14.401 43.8385 14.3747 44.6787 14.3537C45.5294 14.3327 46.3802 14.3222 47.2309 14.3222C48.0816 14.3117 48.9533 14.3065 49.8461 14.3065C50.4342 14.3065 51.0802 14.359 51.7839 14.464C52.498 14.569 53.1912 14.7371 53.8634 14.9682C54.5461 15.1992 55.1237 15.5038 55.5964 15.8819C56.5836 16.6591 57.3241 17.5413 57.8177 18.5286C58.3218 19.5159 58.6579 20.5766 58.826 21.7109C59.0045 22.8347 59.0938 24.0058 59.0938 25.2241ZM54.1627 25.2241C54.1627 24.4049 54.1102 23.5752 54.0052 22.735C53.9107 21.8947 53.7164 21.1228 53.4223 20.4191C53.1282 19.7049 52.6923 19.1325 52.1147 18.7019C51.5475 18.2713 50.7913 18.056 49.8461 18.056C49.2999 18.056 48.7748 18.056 48.2707 18.056C47.7665 18.0455 47.2204 18.035 46.6322 18.0245V32.4396C47.2204 32.429 47.7665 32.4238 48.2707 32.4238C48.7748 32.4238 49.2999 32.4238 49.8461 32.4238C50.7913 32.4238 51.5475 32.2085 52.1147 31.7779C52.6923 31.3368 53.1282 30.7644 53.4223 30.0607C53.7164 29.3465 53.9107 28.5693 54.0052 27.729C54.1102 26.8783 54.1627 26.0434 54.1627 25.2241ZM67.5558 36.0788H65.5235C64.6727 36.0788 63.9953 35.832 63.4912 35.3383C62.9871 34.8342 62.735 34.141 62.735 33.2588V14.4955L62.9555 14.275H64.72C65.6548 14.275 66.3584 14.5165 66.8311 14.9997C67.3142 15.4828 67.5558 16.26 67.5558 17.3313V36.0788ZM76.063 31.9354C76.063 33.4688 75.8162 34.5454 75.3226 35.165C74.829 35.7742 73.9887 36.0788 72.8019 36.0788H65.5235L62.9555 32.5971C64.2789 32.366 65.5917 32.198 66.8941 32.093C68.2069 31.9879 69.4043 31.9354 70.486 31.9354H76.063Z" fill="#38A3A5"/>
<path d="M149.131 21.0965C149.131 22.1048 148.937 22.9975 148.548 23.7747C148.17 24.552 147.682 25.2031 147.083 25.7283C146.495 26.2429 145.886 26.621 145.256 26.8626C145.844 27.0621 146.332 27.4192 146.721 27.9339C147.11 28.4485 147.425 29.0472 147.666 29.7298L148.674 32.5341C148.853 33.0487 149.068 33.5003 149.32 33.8889C149.583 34.267 149.877 34.5874 150.203 34.8499C149.909 35.2596 149.462 35.6009 148.863 35.874C148.265 36.1365 147.65 36.2678 147.02 36.2678C146.149 36.2678 145.513 36.0368 145.114 35.5746C144.725 35.102 144.368 34.4036 144.043 33.4793L142.845 30.0607C142.656 29.4935 142.368 29.0104 141.979 28.6113C141.601 28.2017 140.981 27.9969 140.12 27.9969H136.685V24.3892C137.095 24.3682 137.599 24.3471 138.198 24.3261C138.807 24.3051 139.385 24.2894 139.931 24.2789C140.477 24.2579 140.876 24.2474 141.128 24.2474C141.958 24.2474 142.593 24.1003 143.034 23.8063C143.486 23.5017 143.796 23.1078 143.964 22.6247C144.132 22.1416 144.216 21.6322 144.216 21.0965C144.216 20.5294 144.132 20.0095 143.964 19.5369C143.796 19.0642 143.486 18.6861 143.034 18.4026C142.593 18.1085 141.958 17.9615 141.128 17.9615C140.908 17.9615 140.661 17.9615 140.388 17.9615C140.115 17.9615 139.831 17.9615 139.537 17.9615C139.243 17.9509 138.944 17.9404 138.639 17.9299V36C138.24 36.0735 137.825 36.1208 137.394 36.1418C136.964 36.1628 136.58 36.1733 136.244 36.1733C135.95 36.1733 135.577 36.1628 135.126 36.1418C134.674 36.1208 134.254 36.0735 133.865 36V14.6373L134.086 14.4325C135.409 14.401 136.685 14.3747 137.914 14.3537C139.143 14.3222 140.346 14.3065 141.522 14.3065C142.982 14.3065 144.284 14.548 145.429 15.0312C146.574 15.5038 147.477 16.2442 148.139 17.2525C148.8 18.2503 149.131 19.5316 149.131 21.0965ZM156.538 25.2241C156.538 26.0749 156.586 26.9413 156.68 27.8236C156.785 28.7058 156.98 29.5198 157.263 30.2655C157.557 31.0112 157.988 31.6151 158.555 32.0772C159.122 32.5288 159.873 32.7546 160.808 32.7546C161.743 32.7546 162.494 32.5288 163.061 32.0772C163.628 31.6151 164.053 31.0112 164.337 30.2655C164.631 29.5198 164.825 28.7058 164.92 27.8236C165.025 26.9413 165.077 26.0749 165.077 25.2241C165.077 24.3734 165.025 23.5122 164.92 22.6404C164.825 21.7582 164.631 20.9495 164.337 20.2143C164.053 19.4686 163.628 18.8699 163.061 18.4183C162.494 17.9562 161.743 17.7251 160.808 17.7251C159.873 17.7251 159.122 17.9562 158.555 18.4183C157.988 18.8699 157.557 19.4686 157.263 20.2143C156.98 20.9495 156.785 21.7582 156.68 22.6404C156.586 23.5122 156.538 24.3734 156.538 25.2241ZM151.529 25.2241C151.529 22.987 151.865 21.0283 152.537 19.3478C153.209 17.6674 154.228 16.3598 155.593 15.425C156.969 14.4903 158.707 14.0229 160.808 14.0229C162.929 14.0229 164.673 14.4955 166.038 15.4408C167.414 16.386 168.433 17.6989 169.095 19.3793C169.767 21.0598 170.103 23.008 170.103 25.2241C170.103 27.4612 169.767 29.4253 169.095 31.1162C168.422 32.7966 167.398 34.1095 166.023 35.0547C164.657 35.9895 162.919 36.4569 160.808 36.4569C159.222 36.4569 157.846 36.1891 156.68 35.6534C155.514 35.1073 154.548 34.3353 153.781 33.3375C153.025 32.3398 152.458 31.153 152.08 29.7771C151.712 28.4012 151.529 26.8836 151.529 25.2241ZM190.332 28.1071C190.332 29.8821 190.002 31.3945 189.34 32.6444C188.678 33.8837 187.717 34.8289 186.457 35.4801C185.197 36.1313 183.668 36.4569 181.872 36.4569C180.087 36.4569 178.564 36.1313 177.304 35.4801C176.054 34.8289 175.098 33.8837 174.436 32.6444C173.775 31.3945 173.444 29.8821 173.444 28.1071V14.4955L173.649 14.275H175.413C176.348 14.275 177.057 14.5165 177.54 14.9997C178.023 15.4828 178.265 16.26 178.265 17.3313V28.1544C178.265 29.6353 178.543 30.7539 179.1 31.5101C179.656 32.2558 180.586 32.6286 181.888 32.6286C183.191 32.6286 184.12 32.2558 184.677 31.5101C185.233 30.7539 185.512 29.6353 185.512 28.1544V14.4798C185.911 14.4063 186.32 14.359 186.74 14.338C187.161 14.317 187.533 14.3065 187.859 14.3065C188.164 14.3065 188.552 14.317 189.025 14.338C189.508 14.359 189.944 14.4063 190.332 14.4798V28.1071ZM192.817 18.4813C192.743 18.1242 192.691 17.7724 192.659 17.4258C192.638 17.0792 192.628 16.7694 192.628 16.4963C192.628 16.2232 192.638 15.9082 192.659 15.5511C192.691 15.194 192.743 14.8369 192.817 14.4798H208.256C208.414 15.0259 208.492 15.6403 208.492 16.323C208.492 17.1107 208.288 17.6674 207.878 17.993C207.468 18.3185 206.828 18.4813 205.956 18.4813H204.885C204.654 18.4813 204.323 18.4761 203.892 18.4656C203.472 18.4551 203.146 18.4498 202.915 18.4498H198.095C197.864 18.4498 197.538 18.4551 197.118 18.4656C196.698 18.4761 196.367 18.4813 196.125 18.4813H192.817ZM198.095 20.7815C198.095 20.3508 198.1 19.9675 198.11 19.6314C198.121 19.2848 198.126 18.8909 198.126 18.4498V16.4648H202.884V18.4498C202.884 18.8909 202.889 19.2848 202.9 19.6314C202.91 19.9675 202.915 20.3508 202.915 20.7815V36C202.506 36.0735 202.086 36.1208 201.655 36.1418C201.224 36.1628 200.841 36.1733 200.505 36.1733C200.179 36.1733 199.796 36.1628 199.355 36.1418C198.924 36.1208 198.504 36.0735 198.095 36V20.7815ZM210.882 14.7003L211.102 14.4798H215.608V18.4341C215.608 18.8752 215.613 19.2638 215.624 19.5999C215.634 19.936 215.64 20.3193 215.64 20.7499V29.9189C215.64 30.3075 215.634 30.6646 215.624 30.9902C215.613 31.3158 215.608 31.6834 215.608 32.093V36.0788H213.639C212.778 36.0788 212.1 35.8267 211.607 35.3226C211.123 34.8184 210.882 34.1305 210.882 33.2588V14.7003ZM222.713 23.2234C222.808 23.5174 222.876 23.8535 222.918 24.2316C222.971 24.5992 222.997 24.9143 222.997 25.1769C222.997 25.4499 222.971 25.7703 222.918 26.1379C222.876 26.495 222.808 26.8258 222.713 27.1304H217.751C217.488 27.1304 217.12 27.1304 216.648 27.1304C216.186 27.1199 215.708 27.1094 215.214 27.0989C214.731 27.0884 214.321 27.0831 213.985 27.0831V23.2706C214.321 23.2601 214.731 23.2549 215.214 23.2549C215.708 23.2444 216.186 23.2391 216.648 23.2391C217.12 23.2286 217.488 23.2234 217.751 23.2234H222.713ZM224.556 14.4798C224.63 14.8369 224.677 15.173 224.698 15.488C224.719 15.8031 224.73 16.0972 224.73 16.3703C224.73 16.6434 224.693 16.9794 224.619 17.3785C224.556 17.7671 224.462 18.1452 224.336 18.5128H217.751C217.488 18.5128 217.12 18.5128 216.648 18.5128C216.186 18.5023 215.708 18.4918 215.214 18.4813C214.731 18.4708 214.321 18.4603 213.985 18.4498V14.4798H224.556ZM225.328 32.0457C225.328 33.3796 225.118 34.3878 224.698 35.0705C224.278 35.7427 223.433 36.0788 222.162 36.0788H213.985V32.2032C214.637 32.1717 215.261 32.1402 215.86 32.1087C216.469 32.0667 217.152 32.0457 217.908 32.0457H225.328Z" fill="white"/>
<path fill-rule="evenodd" clip-rule="evenodd" d="M121.213 24.481C121.125 34.2017 113.218 42.0549 103.477 42.0549C95.4861 42.0549 88.7295 36.7707 86.5109 29.506C86.317 29.5348 86.1188 29.5504 85.9172 29.5519C88.1691 37.1186 95.1786 42.6364 103.477 42.6364C113.497 42.6364 121.637 34.5917 121.793 24.6089C121.594 24.5803 121.4 24.5373 121.213 24.481ZM120.678 18.0043C118.105 10.9983 111.375 6 103.477 6C94.4426 6 86.9358 12.54 85.4327 21.1439C85.5815 21.128 85.7326 21.1198 85.8856 21.1198C85.933 21.1198 85.9803 21.1206 86.0274 21.1222C87.5323 12.8519 94.7723 6.58153 103.477 6.58153C111.158 6.58153 117.698 11.4638 120.164 18.2943C120.326 18.1856 120.498 18.0884 120.678 18.0043Z" fill="white"/>
<circle cx="86.1763" cy="25.3359" r="2.90765" stroke="white" stroke-width="0.872296"/>
<circle cx="100.133" cy="34.3497" r="2.90765" stroke="white" stroke-width="0.872296"/>
<circle cx="110.601" cy="15.4499" r="2.90765" stroke="white" stroke-width="0.872296"/>
<circle cx="122.813" cy="20.9744" r="2.90765" stroke="white" stroke-width="0.872296"/>
<line x1="89.3099" y1="27.1049" x2="97.1606" y2="32.3386" stroke="white" stroke-width="0.290765"/>
<line x1="108.836" y1="18.576" x2="101.567" y2="31.0789" stroke="white" stroke-width="0.290765"/>
<line x1="114.007" y1="16.9177" x2="119.531" y2="19.5346" stroke="white" stroke-width="0.290765"/>
</svg>
