<svg width="358" height="117" viewBox="0 0 358 117" fill="none" xmlns="http://www.w3.org/2000/svg">
<path d="M25.488 43.176C25.28 43.176 25.024 43.176 24.72 43.176C24.416 43.16 24.112 43.152 23.808 43.152C23.52 43.136 23.264 43.128 23.04 43.128C22.32 43.128 21.584 43.136 20.832 43.152C20.096 43.168 19.368 43.176 18.648 43.176V37.032C19.368 37.032 20.096 37.04 20.832 37.056C21.584 37.072 22.32 37.08 23.04 37.08C23.264 37.08 23.52 37.08 23.808 37.08C24.112 37.064 24.416 37.056 24.72 37.056C25.024 37.04 25.28 37.032 25.488 37.032H31.392C31.616 37.032 31.872 37.04 32.16 37.056C32.464 37.056 32.76 37.064 33.048 37.08C33.352 37.08 33.608 37.08 33.816 37.08C34.536 37.08 35.272 37.072 36.024 37.056C36.776 37.04 37.512 37.032 38.232 37.032V43.176C37.512 43.176 36.776 43.168 36.024 43.152C35.272 43.136 34.536 43.128 33.816 43.128C33.608 43.128 33.352 43.136 33.048 43.152C32.76 43.152 32.464 43.16 32.16 43.176C31.872 43.176 31.616 43.176 31.392 43.176H25.488ZM23.088 57C22.496 57.112 21.856 57.184 21.168 57.216C20.496 57.248 19.912 57.264 19.416 57.264C18.968 57.264 18.392 57.248 17.688 57.216C16.984 57.184 16.336 57.112 15.744 57V24.216C16.336 24.104 16.984 24.032 17.688 24C18.392 23.968 18.968 23.952 19.416 23.952C19.912 23.952 20.496 23.968 21.168 24C21.856 24.032 22.496 24.104 23.088 24.216V33.528C23.088 34.2 23.08 34.8 23.064 35.328C23.048 35.84 23.04 36.424 23.04 37.08V43.128C23.04 43.768 23.048 44.352 23.064 44.88C23.08 45.408 23.088 46.008 23.088 46.68V57ZM33.768 46.68C33.768 46.008 33.776 45.408 33.792 44.88C33.808 44.352 33.816 43.768 33.816 43.128V37.08C33.816 36.424 33.808 35.84 33.792 35.328C33.776 34.8 33.768 34.2 33.768 33.528V24.216C34.376 24.104 35.016 24.032 35.688 24C36.36 23.968 36.944 23.952 37.44 23.952C37.904 23.952 38.488 23.968 39.192 24C39.896 24.032 40.536 24.104 41.112 24.216V57C40.488 57.112 39.864 57.184 39.24 57.216C38.616 57.248 38.04 57.264 37.512 57.264C37.016 57.264 36.424 57.248 35.736 57.216C35.048 57.184 34.392 57.112 33.768 57V46.68ZM48.6754 24.216C49.2514 24.104 49.8914 24.032 50.5954 24C51.3154 23.968 51.8994 23.952 52.3474 23.952C52.8434 23.952 53.4274 23.968 54.0994 24C54.7874 24.032 55.4274 24.104 56.0194 24.216V57C55.4274 57.112 54.7874 57.184 54.0994 57.216C53.4274 57.248 52.8434 57.264 52.3474 57.264C51.8994 57.264 51.3154 57.248 50.5954 57.216C49.8914 57.184 49.2514 57.112 48.6754 57V24.216ZM89.8365 40.584C89.8365 42.456 89.7085 44.256 89.4525 45.984C89.1965 47.712 88.6845 49.328 87.9165 50.832C87.1645 52.336 86.0285 53.68 84.5085 54.864C83.7725 55.44 82.8845 55.904 81.8445 56.256C80.8205 56.608 79.7725 56.864 78.7005 57.024C77.6285 57.184 76.6445 57.264 75.7485 57.264C74.3885 57.264 73.0605 57.256 71.7645 57.24C70.4845 57.224 69.1965 57.2 67.9005 57.168C66.6205 57.136 65.2845 57.104 63.8925 57.072L63.5565 56.76V24.456L63.8925 24.144C65.2685 24.096 66.5965 24.056 67.8765 24.024C69.1725 23.992 70.4685 23.976 71.7645 23.976C73.0605 23.96 74.3885 23.952 75.7485 23.952C76.6445 23.952 77.6285 24.032 78.7005 24.192C79.7885 24.352 80.8445 24.608 81.8685 24.96C82.9085 25.312 83.7885 25.776 84.5085 26.352C86.0125 27.536 87.1405 28.88 87.8925 30.384C88.6605 31.888 89.1725 33.504 89.4285 35.232C89.7005 36.944 89.8365 38.728 89.8365 40.584ZM82.3245 40.584C82.3245 39.336 82.2445 38.072 82.0845 36.792C81.9405 35.512 81.6445 34.336 81.1965 33.264C80.7485 32.176 80.0845 31.304 79.2045 30.648C78.3405 29.992 77.1885 29.664 75.7485 29.664C74.9165 29.664 74.1165 29.664 73.3485 29.664C72.5805 29.648 71.7485 29.632 70.8525 29.616V51.576C71.7485 51.56 72.5805 51.552 73.3485 51.552C74.1165 51.552 74.9165 51.552 75.7485 51.552C77.1885 51.552 78.3405 51.224 79.2045 50.568C80.0845 49.896 80.7485 49.024 81.1965 47.952C81.6445 46.864 81.9405 45.68 82.0845 44.4C82.2445 43.104 82.3245 41.832 82.3245 40.584ZM102.728 57.12H99.6315C98.3355 57.12 97.3035 56.744 96.5355 55.992C95.7675 55.224 95.3835 54.168 95.3835 52.824V24.24L95.7195 23.904H98.4075C99.8315 23.904 100.904 24.272 101.624 25.008C102.36 25.744 102.728 26.928 102.728 28.56V57.12ZM115.688 50.808C115.688 53.144 115.312 54.784 114.56 55.728C113.808 56.656 112.528 57.12 110.72 57.12H99.6315L95.7195 51.816C97.7355 51.464 99.7355 51.208 101.72 51.048C103.72 50.888 105.544 50.808 107.192 50.808H115.688Z" fill="#38A3A5"/>
<path d="M227 34.296C227 35.832 226.704 37.192 226.112 38.376C225.536 39.56 224.792 40.552 223.88 41.352C222.984 42.136 222.056 42.712 221.096 43.08C221.992 43.384 222.736 43.928 223.328 44.712C223.92 45.496 224.4 46.408 224.768 47.448L226.304 51.72C226.576 52.504 226.904 53.192 227.288 53.784C227.688 54.36 228.136 54.848 228.632 55.248C228.184 55.872 227.504 56.392 226.592 56.808C225.68 57.208 224.744 57.408 223.784 57.408C222.456 57.408 221.488 57.056 220.88 56.352C220.288 55.632 219.744 54.568 219.248 53.16L217.424 47.952C217.136 47.088 216.696 46.352 216.104 45.744C215.528 45.12 214.584 44.808 213.272 44.808H208.04V39.312C208.664 39.28 209.432 39.248 210.344 39.216C211.272 39.184 212.152 39.16 212.984 39.144C213.816 39.112 214.424 39.096 214.808 39.096C216.072 39.096 217.04 38.872 217.712 38.424C218.4 37.96 218.872 37.36 219.128 36.624C219.384 35.888 219.512 35.112 219.512 34.296C219.512 33.432 219.384 32.64 219.128 31.92C218.872 31.2 218.4 30.624 217.712 30.192C217.04 29.744 216.072 29.52 214.808 29.52C214.472 29.52 214.096 29.52 213.68 29.52C213.264 29.52 212.832 29.52 212.384 29.52C211.936 29.504 211.48 29.488 211.016 29.472V57C210.408 57.112 209.776 57.184 209.12 57.216C208.464 57.248 207.88 57.264 207.368 57.264C206.92 57.264 206.352 57.248 205.664 57.216C204.976 57.184 204.336 57.112 203.744 57V24.456L204.08 24.144C206.096 24.096 208.04 24.056 209.912 24.024C211.784 23.976 213.616 23.952 215.408 23.952C217.632 23.952 219.616 24.32 221.36 25.056C223.104 25.776 224.48 26.904 225.488 28.44C226.496 29.96 227 31.912 227 34.296ZM238.284 40.584C238.284 41.88 238.356 43.2 238.5 44.544C238.66 45.888 238.956 47.128 239.388 48.264C239.836 49.4 240.492 50.32 241.356 51.024C242.22 51.712 243.364 52.056 244.788 52.056C246.212 52.056 247.356 51.712 248.22 51.024C249.084 50.32 249.732 49.4 250.164 48.264C250.612 47.128 250.908 45.888 251.052 44.544C251.212 43.2 251.292 41.88 251.292 40.584C251.292 39.288 251.212 37.976 251.052 36.648C250.908 35.304 250.612 34.072 250.164 32.952C249.732 31.816 249.084 30.904 248.22 30.216C247.356 29.512 246.212 29.16 244.788 29.16C243.364 29.16 242.22 29.512 241.356 30.216C240.492 30.904 239.836 31.816 239.388 32.952C238.956 34.072 238.66 35.304 238.5 36.648C238.356 37.976 238.284 39.288 238.284 40.584ZM230.652 40.584C230.652 37.176 231.164 34.192 232.188 31.632C233.212 29.072 234.764 27.08 236.844 25.656C238.94 24.232 241.588 23.52 244.788 23.52C248.02 23.52 250.676 24.24 252.756 25.68C254.852 27.12 256.404 29.12 257.412 31.68C258.436 34.24 258.948 37.208 258.948 40.584C258.948 43.992 258.436 46.984 257.412 49.56C256.388 52.12 254.828 54.12 252.732 55.56C250.652 56.984 248.004 57.696 244.788 57.696C242.372 57.696 240.276 57.288 238.5 56.472C236.724 55.64 235.252 54.464 234.084 52.944C232.932 51.424 232.068 49.616 231.492 47.52C230.932 45.424 230.652 43.112 230.652 40.584ZM289.766 44.976C289.766 47.68 289.262 49.984 288.254 51.888C287.246 53.776 285.782 55.216 283.862 56.208C281.942 57.2 279.614 57.696 276.878 57.696C274.158 57.696 271.838 57.2 269.918 56.208C268.014 55.216 266.558 53.776 265.55 51.888C264.542 49.984 264.038 47.68 264.038 44.976V24.24L264.35 23.904H267.038C268.462 23.904 269.542 24.272 270.278 25.008C271.014 25.744 271.382 26.928 271.382 28.56V45.048C271.382 47.304 271.806 49.008 272.654 50.16C273.502 51.296 274.918 51.864 276.902 51.864C278.886 51.864 280.302 51.296 281.15 50.16C281.998 49.008 282.422 47.304 282.422 45.048V24.216C283.03 24.104 283.654 24.032 284.294 24C284.934 23.968 285.502 23.952 285.998 23.952C286.462 23.952 287.054 23.968 287.774 24C288.51 24.032 289.174 24.104 289.766 24.216V44.976ZM293.551 30.312C293.439 29.768 293.359 29.232 293.311 28.704C293.279 28.176 293.263 27.704 293.263 27.288C293.263 26.872 293.279 26.392 293.311 25.848C293.359 25.304 293.439 24.76 293.551 24.216H317.071C317.311 25.048 317.431 25.984 317.431 27.024C317.431 28.224 317.119 29.072 316.495 29.568C315.871 30.064 314.895 30.312 313.567 30.312H311.935C311.583 30.312 311.079 30.304 310.423 30.288C309.783 30.272 309.287 30.264 308.935 30.264H301.591C301.239 30.264 300.743 30.272 300.103 30.288C299.463 30.304 298.959 30.312 298.591 30.312H293.551ZM301.591 33.816C301.591 33.16 301.599 32.576 301.615 32.064C301.631 31.536 301.639 30.936 301.639 30.264V27.24H308.887V30.264C308.887 30.936 308.895 31.536 308.911 32.064C308.927 32.576 308.935 33.16 308.935 33.816V57C308.311 57.112 307.671 57.184 307.015 57.216C306.359 57.248 305.775 57.264 305.263 57.264C304.767 57.264 304.183 57.248 303.511 57.216C302.855 57.184 302.215 57.112 301.591 57V33.816ZM321.071 24.552L321.407 24.216H328.271V30.24C328.271 30.912 328.279 31.504 328.295 32.016C328.311 32.528 328.319 33.112 328.319 33.768V47.736C328.319 48.328 328.311 48.872 328.295 49.368C328.279 49.864 328.271 50.424 328.271 51.048V57.12H325.271C323.959 57.12 322.927 56.736 322.175 55.968C321.439 55.2 321.071 54.152 321.071 52.824V24.552ZM339.095 37.536C339.239 37.984 339.343 38.496 339.407 39.072C339.487 39.632 339.527 40.112 339.527 40.512C339.527 40.928 339.487 41.416 339.407 41.976C339.343 42.52 339.239 43.024 339.095 43.488H331.535C331.135 43.488 330.575 43.488 329.855 43.488C329.151 43.472 328.423 43.456 327.671 43.44C326.935 43.424 326.311 43.416 325.799 43.416V37.608C326.311 37.592 326.935 37.584 327.671 37.584C328.423 37.568 329.151 37.56 329.855 37.56C330.575 37.544 331.135 37.536 331.535 37.536H339.095ZM341.903 24.216C342.015 24.76 342.087 25.272 342.119 25.752C342.151 26.232 342.167 26.68 342.167 27.096C342.167 27.512 342.111 28.024 341.999 28.632C341.903 29.224 341.759 29.8 341.567 30.36H331.535C331.135 30.36 330.575 30.36 329.855 30.36C329.151 30.344 328.423 30.328 327.671 30.312C326.935 30.296 326.311 30.28 325.799 30.264V24.216H341.903ZM343.079 50.976C343.079 53.008 342.759 54.544 342.119 55.584C341.479 56.608 340.191 57.12 338.255 57.12H325.799V51.216C326.791 51.168 327.743 51.12 328.655 51.072C329.583 51.008 330.623 50.976 331.775 50.976H343.079Z" fill="white"/>
<path d="M20.4023 83.4158C21.617 83.4158 22.6462 83.5761 23.4898 83.8966C24.3334 84.2003 25.0083 84.7065 25.5145 85.4151C26.0206 86.1237 26.3834 87.0517 26.6027 88.199C26.8389 89.3463 26.957 90.7635 26.957 92.4507C26.957 94.1379 26.8389 95.5552 26.6027 96.7025C26.3834 97.8498 26.0206 98.7777 25.5145 99.4864C25.0083 100.195 24.3334 100.71 23.4898 101.03C22.6462 101.334 21.617 101.486 20.4023 101.486C19.1875 101.486 18.1583 101.334 17.3147 101.03C16.4711 100.71 15.7962 100.195 15.29 99.4864C14.7839 98.7777 14.4127 97.8498 14.1765 96.7025C13.9403 95.5552 13.8222 94.1379 13.8222 92.4507C13.8222 90.7635 13.9403 89.3463 14.1765 88.199C14.4127 87.0517 14.7839 86.1237 15.29 85.4151C15.7962 84.7065 16.4711 84.2003 17.3147 83.8966C18.1583 83.5761 19.1875 83.4158 20.4023 83.4158ZM20.4023 84.3522C19.0356 84.3522 17.9558 84.6137 17.1628 85.1367C16.3698 85.6429 15.7962 86.4865 15.4419 87.6675C15.0876 88.8486 14.9104 90.443 14.9104 92.4507C14.9104 94.4585 15.0876 96.0529 15.4419 97.234C15.7962 98.415 16.3698 99.267 17.1628 99.7901C17.9558 100.296 19.0356 100.549 20.4023 100.549C21.752 100.549 22.8234 100.296 23.6164 99.7901C24.4262 99.267 24.9999 98.415 25.3373 97.234C25.6916 96.0529 25.8688 94.4585 25.8688 92.4507C25.8688 90.443 25.6916 88.8486 25.3373 87.6675C24.9999 86.4865 24.4262 85.6429 23.6164 85.1367C22.8234 84.6137 21.752 84.3522 20.4023 84.3522ZM37.6386 83.517C38.9209 83.517 39.9332 83.6689 40.6755 83.9726C41.4348 84.2763 41.9831 84.8077 42.3206 85.567C42.658 86.3262 42.8267 87.3807 42.8267 88.7305C42.8267 90.0971 42.658 91.16 42.3206 91.9193C42 92.6785 41.4601 93.21 40.7009 93.5137C39.9585 93.8005 38.9546 93.9439 37.6892 93.9439C37.0143 93.9439 36.3732 93.9439 35.7658 93.9439C35.1753 93.927 34.6354 93.9017 34.1461 93.868C33.6568 93.8343 33.2434 93.8089 32.906 93.7921C32.5685 93.7752 32.3323 93.7499 32.1974 93.7161L32.2733 93.0328C33.1169 93.0328 33.9942 93.0328 34.9053 93.0328C35.8333 93.0328 36.7444 93.0328 37.6386 93.0328C38.6509 93.016 39.4523 92.8894 40.0428 92.6532C40.6502 92.417 41.0889 91.9868 41.3589 91.3625C41.6288 90.7382 41.7638 89.8609 41.7638 88.7305C41.7638 87.5832 41.6288 86.7058 41.3589 86.0984C41.0889 85.4742 40.6502 85.0439 40.0428 84.8077C39.4523 84.5546 38.6509 84.4281 37.6386 84.4281C36.3226 84.4281 35.1837 84.4365 34.222 84.4534C33.2772 84.4703 32.636 84.4956 32.2986 84.5293L31.9443 83.7195C32.5517 83.652 33.1169 83.6098 33.6399 83.5929C34.163 83.5592 34.7366 83.5423 35.3609 83.5423C36.002 83.5255 36.7612 83.517 37.6386 83.517ZM32.9819 83.7195V101.182H31.9443V83.7195H32.9819ZM49.9638 83.7195C50.7905 83.7195 51.6172 83.7195 52.444 83.7195C53.2876 83.7195 54.1227 83.7279 54.9495 83.7448C55.7762 83.7617 56.5945 83.787 57.4043 83.8207L57.3537 84.6053H50.1409C49.5673 84.6053 49.1033 84.7909 48.749 85.162C48.3947 85.5164 48.2175 85.9888 48.2175 86.5793V98.3222C48.2175 98.9127 48.3947 99.3936 48.749 99.7648C49.1033 100.119 49.5673 100.296 50.1409 100.296H57.3537L57.4043 101.081C56.5945 101.115 55.7762 101.14 54.9495 101.157C54.1227 101.174 53.2876 101.182 52.444 101.182C51.6172 101.182 50.7905 101.182 49.9638 101.182C49.1371 101.182 48.4622 100.929 47.9391 100.423C47.433 99.9166 47.1799 99.2755 47.1799 98.4994V86.4021C47.1799 85.6091 47.433 84.968 47.9391 84.4787C48.4622 83.9726 49.1371 83.7195 49.9638 83.7195ZM47.6101 91.4131L56.3161 91.4384V92.2736L47.6101 92.2989V91.4131ZM74.4805 83.7195V100.676C74.4805 101.013 74.3118 101.182 73.9743 101.182H72.6077C72.4727 101.182 72.3546 101.157 72.2534 101.106C72.169 101.039 72.0931 100.937 72.0256 100.802L64.4838 86.5287C64.332 86.2418 64.1717 85.9382 64.003 85.6176C63.8343 85.297 63.6824 84.9764 63.5475 84.6559H62.9654C62.9822 84.9764 62.9907 85.297 62.9907 85.6176C62.9907 85.9382 62.9907 86.2503 62.9907 86.554V101.182H61.953V84.2256C61.953 83.8882 62.1218 83.7195 62.4592 83.7195H63.7246C63.8765 83.7195 63.9946 83.7532 64.0789 83.8207C64.1802 83.8713 64.2645 83.9641 64.332 84.0991L71.6713 98.0438C71.8569 98.3813 72.0425 98.7356 72.2281 99.1068C72.4306 99.4779 72.6246 99.8491 72.8102 100.22H73.4429C73.4429 99.8154 73.4429 99.4189 73.4429 99.0308C73.4429 98.6259 73.4429 98.2294 73.4429 97.8414V83.7195H74.4805ZM80.4629 98.8031C80.6147 98.8031 80.7244 98.8368 80.7919 98.9043C80.8594 98.9718 80.8931 99.0814 80.8931 99.2333V100.752C80.8931 100.904 80.8594 101.013 80.7919 101.081C80.7244 101.148 80.6147 101.182 80.4629 101.182H80.1086C79.9567 101.182 79.8386 101.148 79.7543 101.081C79.6868 101.013 79.653 100.904 79.653 100.752V99.2333C79.653 99.0814 79.6868 98.9718 79.7543 98.9043C79.8386 98.8368 79.9567 98.8031 80.1086 98.8031H80.4629ZM98.19 83.517C99.4554 83.517 100.468 83.6604 101.227 83.9473C101.986 84.2172 102.534 84.7149 102.872 85.4404C103.209 86.1491 103.378 87.1529 103.378 88.4521C103.378 89.4644 103.268 90.2996 103.049 90.9576C102.83 91.5987 102.484 92.088 102.011 92.4254C101.539 92.746 100.923 92.9569 100.164 93.0581V93.1847C100.468 93.2522 100.738 93.404 100.974 93.6402C101.227 93.8764 101.455 94.1633 101.657 94.5007C101.86 94.8213 102.028 95.1924 102.163 95.6142L104.011 101.182H102.872L101.1 95.6902C100.83 94.8803 100.468 94.3151 100.012 93.9945C99.5735 93.6571 99.0251 93.4884 98.3671 93.4884C97.3885 93.4884 96.5112 93.4799 95.7351 93.4631C94.9758 93.4462 94.3431 93.4293 93.837 93.4125C93.3308 93.3956 92.9681 93.3787 92.7487 93.3618L92.8247 92.552H98.19C99.2023 92.5351 100.004 92.4086 100.594 92.1724C101.202 91.9362 101.64 91.5312 101.91 90.9576C102.18 90.3671 102.315 89.5403 102.315 88.4774C102.315 87.4145 102.18 86.5962 101.91 86.0225C101.64 85.432 101.202 85.0186 100.594 84.7824C100.004 84.5462 99.2023 84.4281 98.19 84.4281C96.8739 84.4281 95.7351 84.4365 94.7734 84.4534C93.8285 84.4703 93.1874 84.4872 92.85 84.504L92.4957 83.7195C93.103 83.652 93.6683 83.6098 94.1913 83.5929C94.7312 83.5592 95.3133 83.5423 95.9375 83.5423C96.5618 83.5255 97.3126 83.517 98.19 83.517ZM93.5333 83.7195V101.182H92.4957V83.7195H93.5333ZM111.207 83.7195C112.034 83.7195 112.861 83.7195 113.687 83.7195C114.531 83.7195 115.366 83.7279 116.193 83.7448C117.02 83.7617 117.838 83.787 118.648 83.8207L118.597 84.6053H111.384C110.811 84.6053 110.347 84.7909 109.992 85.162C109.638 85.5164 109.461 85.9888 109.461 86.5793V98.3222C109.461 98.9127 109.638 99.3936 109.992 99.7648C110.347 100.119 110.811 100.296 111.384 100.296H118.597L118.648 101.081C117.838 101.115 117.02 101.14 116.193 101.157C115.366 101.174 114.531 101.182 113.687 101.182C112.861 101.182 112.034 101.182 111.207 101.182C110.38 101.182 109.706 100.929 109.183 100.423C108.676 99.9166 108.423 99.2755 108.423 98.4994V86.4021C108.423 85.6091 108.676 84.968 109.183 84.4787C109.706 83.9726 110.38 83.7195 111.207 83.7195ZM108.854 91.4131L117.559 91.4384V92.2736L108.854 92.2989V91.4131ZM124.158 83.7195V98.3222C124.158 98.9127 124.335 99.3936 124.69 99.7648C125.061 100.119 125.542 100.296 126.132 100.296H132.864L132.889 101.055C131.742 101.123 130.586 101.165 129.422 101.182C128.258 101.182 127.102 101.182 125.955 101.182C125.078 101.182 124.386 100.92 123.88 100.397C123.374 99.8744 123.121 99.2164 123.121 98.4234V83.7195H124.158ZM137.743 83.7195V101.182H136.706V83.7195H137.743ZM149.29 83.7195C149.408 83.7195 149.501 83.7448 149.569 83.7954C149.653 83.846 149.712 83.9304 149.746 84.0485L155.845 101.182H154.757L149.442 85.9972C149.358 85.761 149.273 85.5248 149.189 85.2886C149.105 85.0524 149.02 84.8162 148.936 84.58H148.227C148.143 84.8162 148.059 85.0524 147.974 85.2886C147.89 85.5248 147.805 85.761 147.721 85.9972L142.406 101.182H141.318L147.417 84.0485C147.451 83.9304 147.51 83.846 147.595 83.7954C147.679 83.7448 147.772 83.7195 147.873 83.7195H149.29ZM152.985 94.1211V95.0322H144.127V94.1211H152.985ZM164.536 83.517C165.919 83.517 167.024 83.652 167.851 83.9219C168.678 84.175 169.277 84.6306 169.648 85.2886C170.019 85.9466 170.205 86.8745 170.205 88.0725C170.205 89.321 169.968 90.2743 169.496 90.9323C169.04 91.5903 168.29 91.9699 167.244 92.0711V92.1724C168.543 92.2905 169.445 92.746 169.952 93.539C170.458 94.332 170.711 95.4287 170.711 96.829C170.711 98.0269 170.534 98.9549 170.179 99.6129C169.825 100.271 169.251 100.735 168.458 101.005C167.665 101.258 166.611 101.384 165.295 101.384C164.384 101.384 163.599 101.376 162.941 101.359C162.3 101.359 161.71 101.342 161.17 101.309C160.63 101.275 160.048 101.233 159.423 101.182L159.778 100.397C160.132 100.414 160.799 100.431 161.777 100.448C162.756 100.465 163.895 100.473 165.194 100.473C166.307 100.473 167.185 100.372 167.826 100.17C168.467 99.9672 168.931 99.596 169.218 99.0561C169.504 98.5162 169.648 97.7401 169.648 96.7278C169.648 95.6311 169.496 94.7875 169.192 94.197C168.889 93.5896 168.391 93.1678 167.699 92.9316C167.024 92.6954 166.113 92.5689 164.966 92.552H159.752V91.7168H164.966C165.995 91.6999 166.813 91.5987 167.421 91.4131C168.045 91.2107 168.484 90.8563 168.737 90.3502C169.007 89.8271 169.142 89.0932 169.142 88.1484C169.142 87.1361 168.99 86.3684 168.686 85.8454C168.399 85.3055 167.91 84.9343 167.218 84.7318C166.543 84.5293 165.641 84.4281 164.51 84.4281C163.734 84.4281 163.034 84.4365 162.41 84.4534C161.786 84.4534 161.246 84.4619 160.79 84.4787C160.351 84.4787 160.014 84.4872 159.778 84.504L159.423 83.7195C159.963 83.652 160.47 83.6098 160.942 83.5929C161.414 83.5592 161.929 83.5423 162.486 83.5423C163.059 83.5255 163.743 83.517 164.536 83.517ZM160.461 83.7195V101.182H159.423V83.7195H160.461ZM176.563 83.7195V98.3222C176.563 98.9127 176.741 99.3936 177.095 99.7648C177.466 100.119 177.947 100.296 178.538 100.296H185.269L185.295 101.055C184.147 101.123 182.992 101.165 181.828 101.182C180.663 101.182 179.508 101.182 178.36 101.182C177.483 101.182 176.791 100.92 176.285 100.397C175.779 99.8744 175.526 99.2164 175.526 98.4234V83.7195H176.563ZM191.743 83.7195C192.57 83.7195 193.396 83.7195 194.223 83.7195C195.067 83.7195 195.902 83.7279 196.729 83.7448C197.555 83.7617 198.374 83.787 199.184 83.8207L199.133 84.6053H191.92C191.346 84.6053 190.882 84.7909 190.528 85.162C190.174 85.5164 189.997 85.9888 189.997 86.5793V98.3222C189.997 98.9127 190.174 99.3936 190.528 99.7648C190.882 100.119 191.346 100.296 191.92 100.296H199.133L199.184 101.081C198.374 101.115 197.555 101.14 196.729 101.157C195.902 101.174 195.067 101.182 194.223 101.182C193.396 101.182 192.57 101.182 191.743 101.182C190.916 101.182 190.241 100.929 189.718 100.423C189.212 99.9166 188.959 99.2755 188.959 98.4994V86.4021C188.959 85.6091 189.212 84.968 189.718 84.4787C190.241 83.9726 190.916 83.7195 191.743 83.7195ZM189.389 91.4131L198.095 91.4384V92.2736L189.389 92.2989V91.4131ZM204.087 98.8031C204.238 98.8031 204.348 98.8368 204.416 98.9043C204.483 98.9718 204.517 99.0814 204.517 99.2333V100.752C204.517 100.904 204.483 101.013 204.416 101.081C204.348 101.148 204.238 101.182 204.087 101.182H203.732C203.58 101.182 203.462 101.148 203.378 101.081C203.31 101.013 203.277 100.904 203.277 100.752V99.2333C203.277 99.0814 203.31 98.9718 203.378 98.9043C203.462 98.8368 203.58 98.8031 203.732 98.8031H204.087ZM221.991 83.4158C222.699 83.4158 223.298 83.4327 223.788 83.4664C224.294 83.5001 224.758 83.5508 225.18 83.6183C225.601 83.6857 226.04 83.7701 226.496 83.8713L226.318 84.6306C225.846 84.5631 225.399 84.5125 224.977 84.4787C224.572 84.4281 224.134 84.3944 223.661 84.3775C223.189 84.3606 222.632 84.3522 221.991 84.3522C220.641 84.3522 219.57 84.6137 218.777 85.1367C217.984 85.6429 217.41 86.4865 217.056 87.6675C216.701 88.8486 216.524 90.443 216.524 92.4507C216.524 94.4585 216.701 96.0529 217.056 97.234C217.41 98.415 217.984 99.267 218.777 99.7901C219.57 100.296 220.641 100.549 221.991 100.549C223.02 100.549 223.889 100.524 224.597 100.473C225.306 100.423 225.998 100.338 226.673 100.22L226.85 101.005C226.158 101.174 225.45 101.292 224.724 101.359C223.999 101.444 223.087 101.486 221.991 101.486C220.388 101.486 219.106 101.199 218.144 100.625C217.182 100.035 216.49 99.0814 216.069 97.7654C215.647 96.4494 215.436 94.6779 215.436 92.4507C215.436 90.2236 215.647 88.4521 216.069 87.1361C216.49 85.8201 217.182 84.8752 218.144 84.3016C219.106 83.711 220.388 83.4158 221.991 83.4158ZM236.588 83.4158C237.803 83.4158 238.832 83.5761 239.676 83.8966C240.519 84.2003 241.194 84.7065 241.7 85.4151C242.206 86.1237 242.569 87.0517 242.788 88.199C243.025 89.3463 243.143 90.7635 243.143 92.4507C243.143 94.1379 243.025 95.5552 242.788 96.7025C242.569 97.8498 242.206 98.7777 241.7 99.4864C241.194 100.195 240.519 100.71 239.676 101.03C238.832 101.334 237.803 101.486 236.588 101.486C235.373 101.486 234.344 101.334 233.5 101.03C232.657 100.71 231.982 100.195 231.476 99.4864C230.97 98.7777 230.598 97.8498 230.362 96.7025C230.126 95.5552 230.008 94.1379 230.008 92.4507C230.008 90.7635 230.126 89.3463 230.362 88.199C230.598 87.0517 230.97 86.1237 231.476 85.4151C231.982 84.7065 232.657 84.2003 233.5 83.8966C234.344 83.5761 235.373 83.4158 236.588 83.4158ZM236.588 84.3522C235.221 84.3522 234.142 84.6137 233.349 85.1367C232.556 85.6429 231.982 86.4865 231.628 87.6675C231.273 88.8486 231.096 90.443 231.096 92.4507C231.096 94.4585 231.273 96.0529 231.628 97.234C231.982 98.415 232.556 99.267 233.349 99.7901C234.142 100.296 235.221 100.549 236.588 100.549C237.938 100.549 239.009 100.296 239.802 99.7901C240.612 99.267 241.186 98.415 241.523 97.234C241.877 96.0529 242.054 94.4585 242.054 92.4507C242.054 90.443 241.877 88.8486 241.523 87.6675C241.186 86.4865 240.612 85.6429 239.802 85.1367C239.009 84.6137 237.938 84.3522 236.588 84.3522ZM263.998 83.7195C264.336 83.7195 264.504 83.8966 264.504 84.251L265.263 101.182H264.226L263.492 84.6053H262.91L257.646 99.1827C257.578 99.4189 257.418 99.537 257.165 99.537H255.849C255.596 99.537 255.427 99.4189 255.343 99.1827L250.104 84.6053H249.522L248.788 101.182H247.75L248.484 84.251C248.501 83.8966 248.678 83.7195 249.016 83.7195H250.458C250.711 83.7195 250.872 83.8376 250.939 84.0738L255.368 96.3229C255.52 96.7109 255.655 97.1074 255.773 97.5123C255.908 97.9004 256.051 98.2885 256.203 98.6765H256.811C256.946 98.2716 257.081 97.8751 257.216 97.487C257.367 97.0821 257.511 96.6772 257.646 96.2723L262.049 84.0738C262.134 83.8376 262.302 83.7195 262.556 83.7195H263.998ZM276.231 83.517C277.513 83.517 278.525 83.6689 279.268 83.9726C280.027 84.2763 280.575 84.8077 280.913 85.567C281.25 86.3262 281.419 87.3807 281.419 88.7305C281.419 90.0971 281.25 91.16 280.913 91.9193C280.592 92.6785 280.052 93.21 279.293 93.5137C278.551 93.8005 277.547 93.9439 276.281 93.9439C275.606 93.9439 274.965 93.9439 274.358 93.9439C273.767 93.927 273.228 93.9017 272.738 93.868C272.249 93.8343 271.836 93.8089 271.498 93.7921C271.161 93.7752 270.924 93.7499 270.79 93.7161L270.865 93.0328C271.709 93.0328 272.586 93.0328 273.497 93.0328C274.425 93.0328 275.337 93.0328 276.231 93.0328C277.243 93.016 278.044 92.8894 278.635 92.6532C279.242 92.417 279.681 91.9868 279.951 91.3625C280.221 90.7382 280.356 89.8609 280.356 88.7305C280.356 87.5832 280.221 86.7058 279.951 86.0984C279.681 85.4742 279.242 85.0439 278.635 84.8077C278.044 84.5546 277.243 84.4281 276.231 84.4281C274.915 84.4281 273.776 84.4365 272.814 84.4534C271.869 84.4703 271.228 84.4956 270.891 84.5293L270.536 83.7195C271.144 83.652 271.709 83.6098 272.232 83.5929C272.755 83.5592 273.329 83.5423 273.953 83.5423C274.594 83.5255 275.353 83.517 276.231 83.517ZM271.574 83.7195V101.182H270.536V83.7195H271.574ZM286.886 83.7195V98.3222C286.886 98.9127 287.063 99.3936 287.417 99.7648C287.788 100.119 288.269 100.296 288.86 100.296H295.592L295.617 101.055C294.47 101.123 293.314 101.165 292.15 101.182C290.986 101.182 289.83 101.182 288.682 101.182C287.805 101.182 287.113 100.92 286.607 100.397C286.101 99.8744 285.848 99.2164 285.848 98.4234V83.7195H286.886ZM302.065 83.7195C302.892 83.7195 303.719 83.7195 304.545 83.7195C305.389 83.7195 306.224 83.7279 307.051 83.7448C307.877 83.7617 308.696 83.787 309.506 83.8207L309.455 84.6053H302.242C301.669 84.6053 301.205 84.7909 300.85 85.162C300.496 85.5164 300.319 85.9888 300.319 86.5793V98.3222C300.319 98.9127 300.496 99.3936 300.85 99.7648C301.205 100.119 301.669 100.296 302.242 100.296H309.455L309.506 101.081C308.696 101.115 307.877 101.14 307.051 101.157C306.224 101.174 305.389 101.182 304.545 101.182C303.719 101.182 302.892 101.182 302.065 101.182C301.238 101.182 300.563 100.929 300.04 100.423C299.534 99.9166 299.281 99.2755 299.281 98.4994V86.4021C299.281 85.6091 299.534 84.968 300.04 84.4787C300.563 83.9726 301.238 83.7195 302.065 83.7195ZM299.711 91.4131L308.417 91.4384V92.2736L299.711 92.2989V91.4131ZM319.242 83.7195V101.182H318.205V83.7195H319.242ZM325.266 83.7195V84.6306H312.207V83.7195H325.266ZM331.703 83.7195C332.53 83.7195 333.357 83.7195 334.183 83.7195C335.027 83.7195 335.862 83.7279 336.689 83.7448C337.516 83.7617 338.334 83.787 339.144 83.8207L339.093 84.6053H331.88C331.307 84.6053 330.843 84.7909 330.488 85.162C330.134 85.5164 329.957 85.9888 329.957 86.5793V98.3222C329.957 98.9127 330.134 99.3936 330.488 99.7648C330.843 100.119 331.307 100.296 331.88 100.296H339.093L339.144 101.081C338.334 101.115 337.516 101.14 336.689 101.157C335.862 101.174 335.027 101.182 334.183 101.182C333.357 101.182 332.53 101.182 331.703 101.182C330.876 101.182 330.201 100.929 329.678 100.423C329.172 99.9166 328.919 99.2755 328.919 98.4994V86.4021C328.919 85.6091 329.172 84.968 329.678 84.4787C330.201 83.9726 330.876 83.7195 331.703 83.7195ZM329.349 91.4131L338.055 91.4384V92.2736L329.349 92.2989V91.4131Z" fill="white"/>
<path fill-rule="evenodd" clip-rule="evenodd" d="M184.469 40.154C184.336 54.9626 172.29 66.9262 157.45 66.9262C145.277 66.9262 134.983 58.8761 131.604 47.809C131.308 47.853 131.006 47.8768 130.699 47.879C134.13 59.4063 144.808 67.8121 157.45 67.8121C172.714 67.8121 185.116 55.5567 185.352 40.3489C185.049 40.3053 184.754 40.2397 184.469 40.154ZM183.654 30.2873C179.735 19.6144 169.482 12 157.45 12C143.687 12 132.251 21.963 129.961 35.0702C130.188 35.046 130.418 35.0336 130.651 35.0336C130.723 35.0336 130.795 35.0348 130.867 35.0371C133.16 22.4382 144.189 12.8859 157.45 12.8859C169.151 12.8859 179.115 20.3236 182.872 30.7291C183.118 30.5634 183.38 30.4155 183.654 30.2873Z" fill="white"/>
<circle cx="131.094" cy="41.4564" r="4.42953" stroke="white" stroke-width="1.32886"/>
<circle cx="152.356" cy="55.188" r="4.42953" stroke="white" stroke-width="1.32886"/>
<circle cx="168.302" cy="26.396" r="4.42953" stroke="white" stroke-width="1.32886"/>
<circle cx="186.906" cy="34.8121" r="4.42953" stroke="white" stroke-width="1.32886"/>
<line x1="135.868" y1="44.1513" x2="147.828" y2="52.1244" stroke="white" stroke-width="0.442953"/>
<line x1="165.614" y1="31.1583" x2="154.54" y2="50.2053" stroke="white" stroke-width="0.442953"/>
<line x1="173.491" y1="28.6321" x2="181.907" y2="32.6187" stroke="white" stroke-width="0.442953"/>
</svg>
