<svg width="800" height="219" viewBox="0 0 800 219" fill="none" xmlns="http://www.w3.org/2000/svg">
<g clip-path="url(#clip0_19_2)">
<rect width="800" height="218.75" fill="white"/>
<path d="M302.673 114.678C302.491 114.678 302.266 114.678 301.999 114.678C301.732 114.664 301.466 114.657 301.199 114.657C300.946 114.643 300.721 114.636 300.525 114.636C299.893 114.636 299.247 114.643 298.587 114.657C297.942 114.671 297.303 114.678 296.671 114.678V109.287C297.303 109.287 297.942 109.294 298.587 109.308C299.247 109.322 299.893 109.329 300.525 109.329C300.721 109.329 300.946 109.329 301.199 109.329C301.466 109.315 301.732 109.308 301.999 109.308C302.266 109.294 302.491 109.287 302.673 109.287H307.854C308.05 109.287 308.275 109.294 308.528 109.308C308.794 109.308 309.054 109.315 309.307 109.329C309.574 109.329 309.798 109.329 309.981 109.329C310.612 109.329 311.258 109.322 311.918 109.308C312.578 109.294 313.224 109.287 313.856 109.287V114.678C313.224 114.678 312.578 114.671 311.918 114.657C311.258 114.643 310.612 114.636 309.981 114.636C309.798 114.636 309.574 114.643 309.307 114.657C309.054 114.657 308.794 114.664 308.528 114.678C308.275 114.678 308.05 114.678 307.854 114.678H302.673ZM300.567 126.809C300.048 126.907 299.486 126.97 298.882 126.998C298.293 127.026 297.78 127.04 297.345 127.04C296.952 127.04 296.446 127.026 295.829 126.998C295.211 126.97 294.642 126.907 294.123 126.809V98.0414C294.642 97.9431 295.211 97.8799 295.829 97.8518C296.446 97.8237 296.952 97.8097 297.345 97.8097C297.78 97.8097 298.293 97.8237 298.882 97.8518C299.486 97.8799 300.048 97.9431 300.567 98.0414V106.212C300.567 106.802 300.56 107.329 300.546 107.792C300.532 108.241 300.525 108.754 300.525 109.329V114.636C300.525 115.198 300.532 115.71 300.546 116.174C300.56 116.637 300.567 117.163 300.567 117.753V126.809ZM309.939 117.753C309.939 117.163 309.946 116.637 309.96 116.174C309.974 115.71 309.981 115.198 309.981 114.636V109.329C309.981 108.754 309.974 108.241 309.96 107.792C309.946 107.329 309.939 106.802 309.939 106.212V98.0414C310.472 97.9431 311.034 97.8799 311.623 97.8518C312.213 97.8237 312.725 97.8097 313.161 97.8097C313.568 97.8097 314.08 97.8237 314.698 97.8518C315.316 97.8799 315.877 97.9431 316.383 98.0414V126.809C315.835 126.907 315.288 126.97 314.74 126.998C314.193 127.026 313.687 127.04 313.224 127.04C312.789 127.04 312.269 127.026 311.665 126.998C311.062 126.97 310.486 126.907 309.939 126.809V117.753ZM323.02 98.0414C323.525 97.9431 324.087 97.8799 324.704 97.8518C325.336 97.8237 325.849 97.8097 326.242 97.8097C326.677 97.8097 327.189 97.8237 327.779 97.8518C328.383 97.8799 328.944 97.9431 329.464 98.0414V126.809C328.944 126.907 328.383 126.97 327.779 126.998C327.189 127.026 326.677 127.04 326.242 127.04C325.849 127.04 325.336 127.026 324.704 126.998C324.087 126.97 323.525 126.907 323.02 126.809V98.0414ZM359.138 112.404C359.138 114.047 359.025 115.626 358.801 117.142C358.576 118.659 358.127 120.077 357.453 121.396C356.793 122.716 355.796 123.896 354.463 124.934C353.817 125.44 353.037 125.847 352.125 126.156C351.226 126.465 350.307 126.689 349.366 126.83C348.425 126.97 347.562 127.04 346.776 127.04C345.582 127.04 344.417 127.033 343.28 127.019C342.157 127.005 341.027 126.984 339.889 126.956C338.766 126.928 337.594 126.9 336.372 126.872L336.077 126.598V98.252L336.372 97.9782C337.58 97.9361 338.745 97.901 339.868 97.8729C341.005 97.8448 342.143 97.8308 343.28 97.8308C344.417 97.8167 345.582 97.8097 346.776 97.8097C347.562 97.8097 348.425 97.8799 349.366 98.0203C350.321 98.1607 351.247 98.3853 352.146 98.6942C353.059 99.0031 353.831 99.4102 354.463 99.9157C355.782 100.955 356.772 102.134 357.432 103.454C358.106 104.773 358.555 106.191 358.78 107.708C359.018 109.21 359.138 110.775 359.138 112.404ZM352.546 112.404C352.546 111.309 352.476 110.2 352.336 109.077C352.209 107.953 351.949 106.921 351.556 105.981C351.163 105.026 350.581 104.261 349.808 103.685C349.05 103.11 348.039 102.822 346.776 102.822C346.046 102.822 345.344 102.822 344.67 102.822C343.996 102.808 343.266 102.794 342.48 102.78V122.049C343.266 122.035 343.996 122.028 344.67 122.028C345.344 122.028 346.046 122.028 346.776 122.028C348.039 122.028 349.05 121.74 349.808 121.165C350.581 120.575 351.163 119.81 351.556 118.869C351.949 117.915 352.209 116.876 352.336 115.752C352.476 114.615 352.546 113.499 352.546 112.404ZM370.449 126.914H367.733C366.595 126.914 365.69 126.584 365.016 125.924C364.342 125.25 364.005 124.324 364.005 123.144V98.0624L364.3 97.7676H366.659C367.908 97.7676 368.849 98.0905 369.481 98.7363C370.126 99.3822 370.449 100.421 370.449 101.853V126.914ZM381.822 121.375C381.822 123.425 381.492 124.864 380.832 125.693C380.172 126.507 379.049 126.914 377.462 126.914H367.733L364.3 122.26C366.069 121.951 367.824 121.726 369.565 121.586C371.32 121.446 372.92 121.375 374.366 121.375H381.822Z" fill="#38A3A5"/>
<path d="M406.377 106.886C406.377 108.234 406.118 109.428 405.598 110.467C405.093 111.505 404.44 112.376 403.64 113.078C402.853 113.766 402.039 114.271 401.197 114.594C401.983 114.861 402.636 115.338 403.155 116.026C403.675 116.714 404.096 117.514 404.419 118.427L405.767 122.176C406.005 122.864 406.293 123.467 406.63 123.987C406.981 124.492 407.374 124.92 407.809 125.271C407.416 125.819 406.82 126.275 406.019 126.64C405.219 126.991 404.398 127.167 403.555 127.167C402.39 127.167 401.541 126.858 401.007 126.24C400.488 125.608 400.01 124.675 399.575 123.439L397.975 118.869C397.722 118.111 397.336 117.465 396.816 116.932C396.311 116.384 395.483 116.11 394.331 116.11H389.74V111.288C390.288 111.26 390.962 111.232 391.762 111.204C392.576 111.176 393.349 111.154 394.079 111.14C394.809 111.112 395.342 111.098 395.679 111.098C396.788 111.098 397.638 110.902 398.227 110.509C398.831 110.101 399.245 109.575 399.47 108.929C399.694 108.283 399.807 107.602 399.807 106.886C399.807 106.128 399.694 105.433 399.47 104.801C399.245 104.17 398.831 103.664 398.227 103.285C397.638 102.892 396.788 102.696 395.679 102.696C395.384 102.696 395.054 102.696 394.689 102.696C394.324 102.696 393.945 102.696 393.552 102.696C393.159 102.681 392.759 102.667 392.352 102.653V126.809C391.818 126.907 391.264 126.97 390.688 126.998C390.112 127.026 389.6 127.04 389.151 127.04C388.758 127.04 388.259 127.026 387.655 126.998C387.052 126.97 386.49 126.907 385.971 126.809V98.252L386.265 97.9782C388.034 97.9361 389.74 97.901 391.383 97.8729C393.026 97.8308 394.633 97.8097 396.206 97.8097C398.157 97.8097 399.898 98.1326 401.428 98.7784C402.959 99.4102 404.166 100.4 405.051 101.748C405.935 103.082 406.377 104.794 406.377 106.886ZM416.279 112.404C416.279 113.541 416.342 114.7 416.469 115.879C416.609 117.058 416.869 118.146 417.248 119.143C417.641 120.14 418.217 120.947 418.975 121.565C419.733 122.169 420.737 122.47 421.986 122.47C423.236 122.47 424.24 122.169 424.998 121.565C425.756 120.947 426.324 120.14 426.704 119.143C427.097 118.146 427.356 117.058 427.483 115.879C427.623 114.7 427.693 113.541 427.693 112.404C427.693 111.267 427.623 110.116 427.483 108.95C427.356 107.771 427.097 106.69 426.704 105.707C426.324 104.71 425.756 103.91 424.998 103.306C424.24 102.689 423.236 102.38 421.986 102.38C420.737 102.38 419.733 102.689 418.975 103.306C418.217 103.91 417.641 104.71 417.248 105.707C416.869 106.69 416.609 107.771 416.469 108.95C416.342 110.116 416.279 111.267 416.279 112.404ZM409.582 112.404C409.582 109.414 410.031 106.795 410.93 104.549C411.828 102.302 413.19 100.554 415.015 99.3049C416.855 98.0554 419.178 97.4306 421.986 97.4306C424.822 97.4306 427.153 98.0624 428.978 99.326C430.817 100.59 432.179 102.345 433.064 104.591C433.962 106.837 434.411 109.442 434.411 112.404C434.411 115.394 433.962 118.02 433.064 120.28C432.165 122.527 430.796 124.282 428.957 125.545C427.132 126.795 424.808 127.42 421.986 127.42C419.866 127.42 418.027 127.061 416.469 126.345C414.91 125.615 413.619 124.583 412.594 123.25C411.583 121.916 410.825 120.329 410.319 118.49C409.828 116.651 409.582 114.622 409.582 112.404ZM461.454 116.258C461.454 118.631 461.011 120.652 460.127 122.323C459.242 123.98 457.958 125.243 456.273 126.114C454.588 126.984 452.545 127.42 450.145 127.42C447.758 127.42 445.722 126.984 444.037 126.114C442.367 125.243 441.089 123.98 440.204 122.323C439.32 120.652 438.878 118.631 438.878 116.258V98.0624L439.151 97.7676H441.51C442.76 97.7676 443.707 98.0905 444.353 98.7363C444.999 99.3822 445.322 100.421 445.322 101.853V116.321C445.322 118.301 445.694 119.796 446.438 120.807C447.182 121.804 448.425 122.302 450.166 122.302C451.907 122.302 453.149 121.804 453.893 120.807C454.637 119.796 455.009 118.301 455.009 116.321V98.0414C455.543 97.9431 456.09 97.8799 456.652 97.8518C457.214 97.8237 457.712 97.8097 458.147 97.8097C458.554 97.8097 459.074 97.8237 459.706 97.8518C460.351 97.8799 460.934 97.9431 461.454 98.0414V116.258ZM464.775 103.39C464.676 102.913 464.606 102.443 464.564 101.98C464.536 101.516 464.522 101.102 464.522 100.737C464.522 100.372 464.536 99.9508 464.564 99.4734C464.606 98.9961 464.676 98.5187 464.775 98.0414H485.413C485.624 98.7714 485.729 99.5928 485.729 100.505C485.729 101.558 485.455 102.302 484.908 102.738C484.36 103.173 483.504 103.39 482.338 103.39H480.906C480.597 103.39 480.155 103.383 479.58 103.369C479.018 103.355 478.583 103.348 478.274 103.348H471.83C471.521 103.348 471.086 103.355 470.524 103.369C469.962 103.383 469.52 103.39 469.197 103.39H464.775ZM471.83 106.465C471.83 105.89 471.837 105.377 471.851 104.928C471.865 104.465 471.872 103.938 471.872 103.348V100.695H478.232V103.348C478.232 103.938 478.239 104.465 478.253 104.928C478.267 105.377 478.274 105.89 478.274 106.465V126.809C477.726 126.907 477.165 126.97 476.589 126.998C476.014 127.026 475.501 127.04 475.052 127.04C474.617 127.04 474.104 127.026 473.514 126.998C472.939 126.97 472.377 126.907 471.83 126.809V106.465ZM488.923 98.3362L489.218 98.0414H495.241V103.327C495.241 103.917 495.248 104.436 495.262 104.886C495.276 105.335 495.283 105.847 495.283 106.423V118.68C495.283 119.199 495.276 119.677 495.262 120.112C495.248 120.547 495.241 121.038 495.241 121.586V126.914H492.609C491.457 126.914 490.552 126.577 489.892 125.903C489.246 125.229 488.923 124.31 488.923 123.144V98.3362ZM504.739 109.729C504.865 110.123 504.957 110.572 505.013 111.077C505.083 111.569 505.118 111.99 505.118 112.341C505.118 112.706 505.083 113.134 505.013 113.625C504.957 114.103 504.865 114.545 504.739 114.952H498.105C497.754 114.952 497.263 114.952 496.631 114.952C496.013 114.938 495.374 114.924 494.715 114.91C494.069 114.896 493.521 114.889 493.072 114.889V109.793C493.521 109.779 494.069 109.772 494.715 109.772C495.374 109.758 496.013 109.75 496.631 109.75C497.263 109.736 497.754 109.729 498.105 109.729H504.739ZM507.203 98.0414C507.301 98.5187 507.364 98.968 507.392 99.3892C507.42 99.8104 507.435 100.203 507.435 100.569C507.435 100.934 507.385 101.383 507.287 101.916C507.203 102.436 507.077 102.941 506.908 103.433H498.105C497.754 103.433 497.263 103.433 496.631 103.433C496.013 103.419 495.374 103.405 494.715 103.39C494.069 103.376 493.521 103.362 493.072 103.348V98.0414H507.203ZM508.235 121.523C508.235 123.306 507.954 124.654 507.392 125.566C506.831 126.465 505.701 126.914 504.002 126.914H493.072V121.733C493.942 121.691 494.778 121.649 495.578 121.607C496.392 121.551 497.305 121.523 498.316 121.523H508.235Z" fill="#687575"/>
<path fill-rule="evenodd" clip-rule="evenodd" d="M428.765 53.7451C428.614 70.5084 414.978 84.051 398.18 84.051C384.4 84.051 372.748 74.9384 368.922 62.4105C368.588 62.4602 368.246 62.4872 367.898 62.4897C371.782 75.5385 383.869 85.0538 398.18 85.0538C415.458 85.0538 429.497 71.1809 429.765 53.9657C429.422 53.9163 429.088 53.8421 428.765 53.7451ZM427.842 42.5761C423.406 30.4945 411.799 21.875 398.18 21.875C382.6 21.875 369.655 33.153 367.063 47.9902C367.319 47.9628 367.58 47.9488 367.844 47.9488C367.925 47.9488 368.007 47.9501 368.088 47.9528C370.684 33.691 383.169 22.8778 398.18 22.8778C411.425 22.8778 422.704 31.2972 426.957 43.0762C427.236 42.8887 427.532 42.7212 427.842 42.5761Z" fill="#595E5E"/>
<circle cx="368.345" cy="55.2194" r="5.01419" stroke="#595E5E" stroke-width="1.50426"/>
<circle cx="392.413" cy="70.7634" r="5.01419" stroke="#595E5E" stroke-width="1.50426"/>
<circle cx="410.464" cy="38.1711" r="5.01419" stroke="#595E5E" stroke-width="1.50426"/>
<circle cx="431.524" cy="47.6981" r="5.01419" stroke="#595E5E" stroke-width="1.50426"/>
<line x1="373.749" y1="58.27" x2="387.287" y2="67.2955" stroke="#595E5E" stroke-width="0.501419"/>
<line x1="407.422" y1="43.562" x2="394.886" y2="65.123" stroke="#595E5E" stroke-width="0.501419"/>
<line x1="416.338" y1="40.7024" x2="425.865" y2="45.2151" stroke="#595E5E" stroke-width="0.501419"/>
<path d="M189.422 159.607L187.442 154.196C187.345 153.956 187.244 153.671 187.139 153.341C187.034 153.011 186.929 152.655 186.824 152.272C186.726 152.655 186.625 153.015 186.52 153.353C186.415 153.682 186.314 153.971 186.216 154.219L184.247 159.607H189.422ZM194.766 165.75H192.426C192.164 165.75 191.95 165.686 191.785 165.559C191.62 165.424 191.496 165.259 191.414 165.064L190.199 161.745H183.46L182.245 165.064C182.185 165.236 182.069 165.394 181.896 165.536C181.724 165.679 181.51 165.75 181.255 165.75H178.892L185.294 149.482H188.376L194.766 165.75ZM203.014 157.155C202.699 156.772 202.354 156.502 201.979 156.345C201.612 156.187 201.214 156.109 200.787 156.109C200.367 156.109 199.988 156.187 199.651 156.345C199.313 156.502 199.024 156.742 198.784 157.065C198.544 157.38 198.361 157.785 198.233 158.28C198.106 158.767 198.042 159.345 198.042 160.012C198.042 160.687 198.094 161.261 198.199 161.734C198.312 162.199 198.469 162.581 198.672 162.881C198.874 163.174 199.122 163.387 199.414 163.522C199.707 163.65 200.033 163.714 200.393 163.714C200.971 163.714 201.462 163.594 201.867 163.354C202.272 163.114 202.654 162.772 203.014 162.33V157.155ZM205.793 149.032V165.75H204.094C203.727 165.75 203.494 165.581 203.397 165.244L203.161 164.13C202.696 164.662 202.159 165.094 201.552 165.424C200.952 165.754 200.251 165.919 199.448 165.919C198.818 165.919 198.241 165.787 197.716 165.525C197.191 165.262 196.737 164.884 196.354 164.389C195.979 163.886 195.687 163.267 195.477 162.532C195.274 161.797 195.173 160.957 195.173 160.012C195.173 159.157 195.289 158.362 195.522 157.627C195.754 156.892 196.088 156.255 196.523 155.715C196.958 155.175 197.479 154.755 198.087 154.455C198.694 154.147 199.377 153.994 200.134 153.994C200.779 153.994 201.331 154.095 201.788 154.297C202.246 154.5 202.654 154.774 203.014 155.119V149.032H205.793ZM218.942 154.207L214.363 165.75H211.843L207.264 154.207H209.559C209.769 154.207 209.942 154.256 210.077 154.354C210.219 154.451 210.313 154.575 210.358 154.725L212.586 160.89C212.706 161.25 212.811 161.602 212.901 161.947C212.991 162.292 213.069 162.637 213.137 162.982C213.212 162.637 213.294 162.292 213.384 161.947C213.474 161.602 213.583 161.25 213.711 160.89L215.983 154.725C216.036 154.575 216.129 154.451 216.264 154.354C216.399 154.256 216.561 154.207 216.748 154.207H218.942ZM226.235 160.822C225.432 160.86 224.757 160.931 224.21 161.036C223.662 161.134 223.223 161.261 222.893 161.419C222.563 161.576 222.327 161.76 222.185 161.97C222.042 162.18 221.971 162.409 221.971 162.656C221.971 163.144 222.113 163.492 222.398 163.702C222.691 163.912 223.07 164.017 223.535 164.017C224.105 164.017 224.596 163.916 225.008 163.714C225.428 163.504 225.837 163.189 226.235 162.769V160.822ZM219.867 155.816C221.195 154.601 222.792 153.994 224.66 153.994C225.335 153.994 225.938 154.106 226.471 154.331C227.003 154.549 227.453 154.856 227.821 155.254C228.188 155.644 228.466 156.112 228.653 156.66C228.848 157.207 228.946 157.807 228.946 158.46V165.75H227.686C227.423 165.75 227.221 165.712 227.078 165.637C226.936 165.555 226.823 165.394 226.741 165.154L226.493 164.321C226.201 164.584 225.916 164.816 225.638 165.019C225.361 165.214 225.072 165.379 224.772 165.514C224.472 165.649 224.15 165.75 223.805 165.818C223.467 165.893 223.092 165.93 222.68 165.93C222.192 165.93 221.742 165.866 221.33 165.739C220.917 165.604 220.561 165.405 220.261 165.142C219.961 164.88 219.728 164.554 219.563 164.164C219.398 163.774 219.316 163.32 219.316 162.802C219.316 162.51 219.365 162.221 219.462 161.936C219.56 161.644 219.717 161.366 219.935 161.104C220.16 160.841 220.448 160.594 220.801 160.361C221.153 160.129 221.585 159.926 222.095 159.754C222.612 159.581 223.212 159.442 223.895 159.337C224.577 159.225 225.357 159.157 226.235 159.135V158.46C226.235 157.687 226.07 157.117 225.74 156.75C225.41 156.375 224.933 156.187 224.311 156.187C223.861 156.187 223.486 156.24 223.186 156.345C222.893 156.45 222.635 156.57 222.41 156.705C222.185 156.832 221.978 156.949 221.791 157.054C221.611 157.159 221.408 157.211 221.183 157.211C220.988 157.211 220.823 157.162 220.688 157.065C220.553 156.96 220.445 156.84 220.362 156.705L219.867 155.816ZM234.162 155.625C234.394 155.392 234.638 155.179 234.893 154.984C235.155 154.781 235.429 154.612 235.714 154.477C236.007 154.335 236.318 154.226 236.648 154.151C236.978 154.069 237.338 154.027 237.728 154.027C238.358 154.027 238.917 154.136 239.404 154.354C239.892 154.564 240.297 154.864 240.619 155.254C240.949 155.636 241.197 156.097 241.362 156.637C241.534 157.17 241.62 157.759 241.62 158.404V165.75H238.842V158.404C238.842 157.699 238.68 157.155 238.358 156.772C238.035 156.382 237.544 156.187 236.884 156.187C236.404 156.187 235.954 156.296 235.534 156.514C235.114 156.731 234.717 157.027 234.342 157.402V165.75H231.563V154.207H233.262C233.622 154.207 233.858 154.376 233.97 154.714L234.162 155.625ZM252.532 156.649C252.449 156.754 252.367 156.836 252.284 156.896C252.209 156.956 252.097 156.986 251.947 156.986C251.804 156.986 251.666 156.945 251.531 156.862C251.396 156.772 251.234 156.675 251.047 156.57C250.859 156.457 250.634 156.36 250.372 156.277C250.117 156.187 249.798 156.142 249.416 156.142C248.928 156.142 248.501 156.232 248.133 156.412C247.766 156.585 247.458 156.836 247.211 157.166C246.971 157.496 246.791 157.897 246.671 158.37C246.551 158.835 246.491 159.364 246.491 159.956C246.491 160.571 246.554 161.119 246.682 161.599C246.817 162.079 247.008 162.484 247.256 162.814C247.503 163.136 247.803 163.384 248.156 163.556C248.508 163.721 248.906 163.804 249.348 163.804C249.791 163.804 250.147 163.751 250.417 163.646C250.694 163.534 250.927 163.414 251.114 163.286C251.302 163.151 251.463 163.031 251.598 162.926C251.741 162.814 251.898 162.757 252.071 162.757C252.296 162.757 252.464 162.844 252.577 163.016L253.376 164.029C253.068 164.389 252.734 164.692 252.374 164.94C252.014 165.18 251.639 165.375 251.249 165.525C250.867 165.667 250.469 165.769 250.057 165.829C249.652 165.889 249.247 165.919 248.842 165.919C248.129 165.919 247.458 165.787 246.828 165.525C246.198 165.255 245.647 164.865 245.174 164.355C244.702 163.845 244.327 163.222 244.049 162.487C243.779 161.745 243.644 160.901 243.644 159.956C243.644 159.109 243.764 158.325 244.004 157.605C244.252 156.877 244.612 156.251 245.084 155.726C245.557 155.194 246.142 154.777 246.839 154.477C247.537 154.177 248.339 154.027 249.247 154.027C250.109 154.027 250.863 154.166 251.508 154.444C252.161 154.721 252.746 155.119 253.263 155.636L252.532 156.649ZM262.356 158.651C262.356 158.291 262.304 157.954 262.199 157.639C262.101 157.316 261.951 157.035 261.749 156.795C261.546 156.555 261.287 156.367 260.972 156.232C260.665 156.09 260.305 156.019 259.892 156.019C259.09 156.019 258.456 156.247 257.991 156.705C257.534 157.162 257.241 157.811 257.114 158.651H262.356ZM257.057 160.327C257.102 160.92 257.207 161.434 257.372 161.869C257.537 162.296 257.755 162.652 258.025 162.938C258.295 163.215 258.614 163.425 258.981 163.567C259.356 163.702 259.769 163.77 260.219 163.77C260.669 163.77 261.055 163.717 261.377 163.612C261.707 163.507 261.992 163.391 262.232 163.264C262.48 163.136 262.694 163.02 262.874 162.915C263.061 162.81 263.241 162.757 263.414 162.757C263.646 162.757 263.819 162.844 263.931 163.016L264.73 164.029C264.422 164.389 264.077 164.692 263.695 164.94C263.312 165.18 262.911 165.375 262.491 165.525C262.079 165.667 261.655 165.769 261.22 165.829C260.792 165.889 260.376 165.919 259.971 165.919C259.169 165.919 258.422 165.787 257.732 165.525C257.042 165.255 256.442 164.861 255.932 164.344C255.422 163.819 255.021 163.174 254.729 162.409C254.436 161.636 254.29 160.744 254.29 159.731C254.29 158.944 254.417 158.205 254.672 157.515C254.927 156.817 255.291 156.214 255.764 155.704C256.244 155.186 256.825 154.777 257.507 154.477C258.197 154.177 258.974 154.027 259.836 154.027C260.564 154.027 261.235 154.144 261.85 154.376C262.465 154.609 262.994 154.95 263.436 155.4C263.879 155.842 264.224 156.39 264.471 157.042C264.726 157.687 264.854 158.426 264.854 159.259C264.854 159.679 264.809 159.964 264.719 160.114C264.629 160.256 264.456 160.327 264.201 160.327H257.057ZM274.184 157.155C273.869 156.772 273.524 156.502 273.149 156.345C272.781 156.187 272.384 156.109 271.956 156.109C271.536 156.109 271.158 156.187 270.82 156.345C270.483 156.502 270.194 156.742 269.954 157.065C269.714 157.38 269.53 157.785 269.403 158.28C269.275 158.767 269.211 159.345 269.211 160.012C269.211 160.687 269.264 161.261 269.369 161.734C269.481 162.199 269.639 162.581 269.841 162.881C270.044 163.174 270.291 163.387 270.584 163.522C270.876 163.65 271.203 163.714 271.563 163.714C272.14 163.714 272.631 163.594 273.036 163.354C273.441 163.114 273.824 162.772 274.184 162.33V157.155ZM276.963 149.032V165.75H275.264C274.896 165.75 274.664 165.581 274.566 165.244L274.33 164.13C273.865 164.662 273.329 165.094 272.721 165.424C272.121 165.754 271.42 165.919 270.618 165.919C269.988 165.919 269.41 165.787 268.885 165.525C268.36 165.262 267.906 164.884 267.524 164.389C267.149 163.886 266.856 163.267 266.646 162.532C266.444 161.797 266.343 160.957 266.343 160.012C266.343 159.157 266.459 158.362 266.691 157.627C266.924 156.892 267.258 156.255 267.693 155.715C268.128 155.175 268.649 154.755 269.256 154.455C269.864 154.147 270.546 153.994 271.304 153.994C271.949 153.994 272.5 154.095 272.958 154.297C273.415 154.5 273.824 154.774 274.184 155.119V149.032H276.963ZM292.219 156.457C292.144 156.577 292.065 156.664 291.982 156.716C291.9 156.761 291.795 156.784 291.667 156.784C291.532 156.784 291.386 156.746 291.229 156.671C291.079 156.596 290.902 156.514 290.7 156.424C290.497 156.326 290.265 156.24 290.002 156.165C289.747 156.09 289.444 156.052 289.091 156.052C288.544 156.052 288.112 156.169 287.797 156.401C287.49 156.634 287.336 156.937 287.336 157.312C287.336 157.56 287.415 157.77 287.572 157.942C287.737 158.107 287.951 158.254 288.214 158.381C288.484 158.509 288.787 158.625 289.125 158.73C289.462 158.827 289.804 158.936 290.149 159.056C290.501 159.176 290.846 159.315 291.184 159.472C291.521 159.622 291.821 159.817 292.084 160.057C292.354 160.29 292.567 160.571 292.725 160.901C292.89 161.231 292.972 161.629 292.972 162.094C292.972 162.649 292.871 163.162 292.669 163.635C292.474 164.1 292.181 164.505 291.791 164.85C291.401 165.187 290.917 165.454 290.34 165.649C289.77 165.836 289.11 165.93 288.36 165.93C287.962 165.93 287.572 165.893 287.19 165.818C286.815 165.75 286.451 165.652 286.099 165.525C285.754 165.397 285.431 165.247 285.131 165.075C284.839 164.902 284.58 164.715 284.355 164.512L284.996 163.455C285.079 163.327 285.176 163.23 285.289 163.162C285.401 163.095 285.544 163.061 285.716 163.061C285.889 163.061 286.05 163.11 286.2 163.207C286.357 163.305 286.537 163.41 286.74 163.522C286.942 163.635 287.179 163.74 287.449 163.837C287.726 163.935 288.075 163.984 288.495 163.984C288.825 163.984 289.106 163.946 289.339 163.871C289.579 163.789 289.774 163.684 289.924 163.556C290.081 163.429 290.194 163.282 290.261 163.117C290.336 162.945 290.374 162.769 290.374 162.589C290.374 162.319 290.291 162.097 290.126 161.925C289.969 161.752 289.755 161.602 289.485 161.475C289.222 161.347 288.919 161.235 288.574 161.137C288.236 161.032 287.887 160.92 287.527 160.8C287.175 160.68 286.826 160.541 286.481 160.384C286.144 160.219 285.84 160.012 285.57 159.765C285.307 159.517 285.094 159.214 284.929 158.854C284.771 158.494 284.692 158.059 284.692 157.549C284.692 157.076 284.786 156.626 284.974 156.199C285.161 155.771 285.435 155.4 285.795 155.085C286.162 154.762 286.616 154.507 287.156 154.32C287.704 154.125 288.334 154.027 289.046 154.027C289.841 154.027 290.565 154.159 291.217 154.421C291.87 154.684 292.414 155.029 292.849 155.456L292.219 156.457ZM300.171 154.027C301.026 154.027 301.803 154.166 302.5 154.444C303.205 154.721 303.805 155.115 304.3 155.625C304.803 156.135 305.189 156.757 305.459 157.492C305.729 158.227 305.864 159.049 305.864 159.956C305.864 160.871 305.729 161.696 305.459 162.431C305.189 163.166 304.803 163.792 304.3 164.31C303.805 164.827 303.205 165.225 302.5 165.502C301.803 165.78 301.026 165.919 300.171 165.919C299.309 165.919 298.525 165.78 297.82 165.502C297.115 165.225 296.511 164.827 296.009 164.31C295.514 163.792 295.128 163.166 294.85 162.431C294.58 161.696 294.445 160.871 294.445 159.956C294.445 159.049 294.58 158.227 294.85 157.492C295.128 156.757 295.514 156.135 296.009 155.625C296.511 155.115 297.115 154.721 297.82 154.444C298.525 154.166 299.309 154.027 300.171 154.027ZM300.171 163.781C301.131 163.781 301.84 163.459 302.298 162.814C302.763 162.169 302.995 161.224 302.995 159.979C302.995 158.734 302.763 157.785 302.298 157.132C301.84 156.48 301.131 156.154 300.171 156.154C299.196 156.154 298.473 156.484 298 157.144C297.535 157.796 297.303 158.741 297.303 159.979C297.303 161.216 297.535 162.161 298 162.814C298.473 163.459 299.196 163.781 300.171 163.781ZM310.796 149.032V165.75H308.018V149.032H310.796ZM323.51 154.207V165.75H321.811C321.444 165.75 321.211 165.581 321.114 165.244L320.922 164.321C320.45 164.801 319.929 165.191 319.359 165.491C318.789 165.784 318.117 165.93 317.345 165.93C316.715 165.93 316.156 165.825 315.669 165.615C315.189 165.397 314.784 165.094 314.454 164.704C314.124 164.314 313.872 163.852 313.7 163.32C313.535 162.78 313.452 162.187 313.452 161.542V154.207H316.231V161.542C316.231 162.247 316.392 162.795 316.715 163.185C317.045 163.567 317.536 163.759 318.189 163.759C318.669 163.759 319.119 163.654 319.539 163.444C319.959 163.226 320.356 162.93 320.731 162.555V154.207H323.51ZM337.909 165.75H335.13V156.289H329.775V162.544C329.775 162.904 329.861 163.185 330.034 163.387C330.214 163.59 330.458 163.691 330.765 163.691C330.938 163.691 331.08 163.672 331.193 163.635C331.313 163.59 331.414 163.545 331.496 163.5C331.586 163.455 331.665 163.414 331.733 163.376C331.8 163.331 331.868 163.309 331.935 163.309C332.018 163.309 332.085 163.331 332.138 163.376C332.19 163.414 332.246 163.474 332.306 163.556L333.139 164.906C332.734 165.244 332.269 165.499 331.744 165.671C331.219 165.844 330.675 165.93 330.113 165.93C329.108 165.93 328.335 165.649 327.795 165.086C327.263 164.516 326.996 163.732 326.996 162.735V156.289H325.815C325.665 156.289 325.538 156.24 325.433 156.142C325.328 156.045 325.275 155.899 325.275 155.704V154.601L327.131 154.286L327.716 151.147C327.754 150.997 327.825 150.881 327.93 150.799C328.035 150.716 328.17 150.675 328.335 150.675H329.775V154.309H337.909V165.75ZM338.393 150.799C338.393 151.039 338.344 151.267 338.246 151.485C338.149 151.695 338.018 151.879 337.853 152.036C337.695 152.194 337.504 152.321 337.279 152.419C337.061 152.509 336.829 152.554 336.581 152.554C336.341 152.554 336.116 152.509 335.906 152.419C335.696 152.321 335.513 152.194 335.355 152.036C335.198 151.879 335.07 151.695 334.973 151.485C334.883 151.267 334.838 151.039 334.838 150.799C334.838 150.551 334.883 150.322 334.973 150.112C335.07 149.895 335.198 149.707 335.355 149.55C335.513 149.385 335.696 149.257 335.906 149.167C336.116 149.07 336.341 149.021 336.581 149.021C336.829 149.021 337.061 149.07 337.279 149.167C337.504 149.257 337.695 149.385 337.853 149.55C338.018 149.707 338.149 149.895 338.246 150.112C338.344 150.322 338.393 150.551 338.393 150.799ZM345.853 154.027C346.708 154.027 347.484 154.166 348.181 154.444C348.886 154.721 349.486 155.115 349.981 155.625C350.484 156.135 350.87 156.757 351.14 157.492C351.41 158.227 351.545 159.049 351.545 159.956C351.545 160.871 351.41 161.696 351.14 162.431C350.87 163.166 350.484 163.792 349.981 164.31C349.486 164.827 348.886 165.225 348.181 165.502C347.484 165.78 346.708 165.919 345.853 165.919C344.99 165.919 344.206 165.78 343.501 165.502C342.796 165.225 342.193 164.827 341.69 164.31C341.195 163.792 340.809 163.166 340.531 162.431C340.261 161.696 340.126 160.871 340.126 159.956C340.126 159.049 340.261 158.227 340.531 157.492C340.809 156.757 341.195 156.135 341.69 155.625C342.193 155.115 342.796 154.721 343.501 154.444C344.206 154.166 344.99 154.027 345.853 154.027ZM345.853 163.781C346.813 163.781 347.521 163.459 347.979 162.814C348.444 162.169 348.676 161.224 348.676 159.979C348.676 158.734 348.444 157.785 347.979 157.132C347.521 156.48 346.813 156.154 345.853 156.154C344.878 156.154 344.154 156.484 343.681 157.144C343.216 157.796 342.984 158.741 342.984 159.979C342.984 161.216 343.216 162.161 343.681 162.814C344.154 163.459 344.878 163.781 345.853 163.781ZM356.264 155.625C356.496 155.392 356.74 155.179 356.995 154.984C357.257 154.781 357.531 154.612 357.816 154.477C358.109 154.335 358.42 154.226 358.75 154.151C359.08 154.069 359.44 154.027 359.83 154.027C360.46 154.027 361.019 154.136 361.506 154.354C361.994 154.564 362.399 154.864 362.721 155.254C363.051 155.636 363.299 156.097 363.464 156.637C363.636 157.17 363.722 157.759 363.722 158.404V165.75H360.944V158.404C360.944 157.699 360.782 157.155 360.46 156.772C360.137 156.382 359.646 156.187 358.986 156.187C358.506 156.187 358.056 156.296 357.636 156.514C357.216 156.731 356.819 157.027 356.444 157.402V165.75H353.665V154.207H355.364C355.724 154.207 355.96 154.376 356.072 154.714L356.264 155.625ZM372.646 165.75V156.3L371.645 156.142C371.428 156.097 371.251 156.022 371.116 155.917C370.989 155.805 370.925 155.647 370.925 155.445V154.309H372.646V153.454C372.646 152.794 372.744 152.201 372.939 151.676C373.141 151.151 373.426 150.705 373.794 150.337C374.169 149.97 374.623 149.689 375.155 149.494C375.688 149.299 376.288 149.201 376.955 149.201C377.488 149.201 377.983 149.272 378.44 149.415L378.384 150.81C378.376 150.915 378.346 151.001 378.294 151.069C378.241 151.129 378.17 151.177 378.08 151.215C377.998 151.245 377.9 151.267 377.788 151.282C377.675 151.29 377.555 151.294 377.428 151.294C377.098 151.294 376.801 151.331 376.539 151.406C376.284 151.474 376.066 151.597 375.886 151.777C375.706 151.95 375.568 152.182 375.47 152.475C375.38 152.76 375.335 153.116 375.335 153.544V154.309H378.339V156.289H375.425V165.75H372.646ZM384.7 154.027C385.555 154.027 386.331 154.166 387.029 154.444C387.734 154.721 388.334 155.115 388.829 155.625C389.331 156.135 389.718 156.757 389.988 157.492C390.258 158.227 390.393 159.049 390.393 159.956C390.393 160.871 390.258 161.696 389.988 162.431C389.718 163.166 389.331 163.792 388.829 164.31C388.334 164.827 387.734 165.225 387.029 165.502C386.331 165.78 385.555 165.919 384.7 165.919C383.838 165.919 383.054 165.78 382.349 165.502C381.644 165.225 381.04 164.827 380.538 164.31C380.043 163.792 379.656 163.166 379.379 162.431C379.109 161.696 378.974 160.871 378.974 159.956C378.974 159.049 379.109 158.227 379.379 157.492C379.656 156.757 380.043 156.135 380.538 155.625C381.04 155.115 381.644 154.721 382.349 154.444C383.054 154.166 383.838 154.027 384.7 154.027ZM384.7 163.781C385.66 163.781 386.369 163.459 386.826 162.814C387.291 162.169 387.524 161.224 387.524 159.979C387.524 158.734 387.291 157.785 386.826 157.132C386.369 156.48 385.66 156.154 384.7 156.154C383.725 156.154 383.001 156.484 382.529 157.144C382.064 157.796 381.831 158.741 381.831 159.979C381.831 161.216 382.064 162.161 382.529 162.814C383.001 163.459 383.725 163.781 384.7 163.781ZM395.134 156.21C395.494 155.52 395.921 154.98 396.416 154.59C396.911 154.192 397.496 153.994 398.171 153.994C398.704 153.994 399.131 154.11 399.454 154.342L399.274 156.424C399.236 156.559 399.18 156.656 399.105 156.716C399.038 156.769 398.944 156.795 398.824 156.795C398.711 156.795 398.543 156.776 398.318 156.739C398.1 156.701 397.886 156.682 397.676 156.682C397.369 156.682 397.095 156.727 396.855 156.817C396.615 156.907 396.398 157.039 396.203 157.211C396.015 157.376 395.846 157.579 395.696 157.819C395.554 158.059 395.419 158.332 395.291 158.64V165.75H392.513V154.207H394.144C394.429 154.207 394.628 154.26 394.74 154.365C394.853 154.462 394.928 154.642 394.965 154.905L395.134 156.21ZM405.894 165.75V154.207H407.593C407.953 154.207 408.189 154.376 408.301 154.714L408.481 155.569C408.684 155.344 408.894 155.137 409.111 154.95C409.336 154.762 409.573 154.601 409.82 154.466C410.075 154.331 410.345 154.226 410.63 154.151C410.923 154.069 411.241 154.027 411.586 154.027C412.314 154.027 412.91 154.226 413.375 154.624C413.848 155.014 414.2 155.535 414.433 156.187C414.613 155.805 414.838 155.479 415.108 155.209C415.378 154.931 415.674 154.706 415.996 154.534C416.319 154.361 416.66 154.234 417.02 154.151C417.388 154.069 417.755 154.027 418.123 154.027C418.76 154.027 419.326 154.125 419.821 154.32C420.316 154.515 420.733 154.8 421.07 155.175C421.408 155.55 421.663 156.007 421.835 156.547C422.015 157.087 422.105 157.706 422.105 158.404V165.75H419.326V158.404C419.326 157.669 419.165 157.117 418.843 156.75C418.52 156.375 418.048 156.187 417.425 156.187C417.14 156.187 416.874 156.236 416.626 156.334C416.386 156.431 416.173 156.574 415.985 156.761C415.805 156.941 415.663 157.17 415.558 157.447C415.453 157.725 415.4 158.044 415.4 158.404V165.75H412.61V158.404C412.61 157.631 412.453 157.069 412.138 156.716C411.83 156.364 411.376 156.187 410.776 156.187C410.371 156.187 409.993 156.289 409.64 156.491C409.295 156.686 408.973 156.956 408.673 157.301V165.75H405.894ZM430.844 160.822C430.042 160.86 429.367 160.931 428.819 161.036C428.272 161.134 427.833 161.261 427.503 161.419C427.173 161.576 426.937 161.76 426.794 161.97C426.652 162.18 426.58 162.409 426.58 162.656C426.58 163.144 426.723 163.492 427.008 163.702C427.3 163.912 427.679 164.017 428.144 164.017C428.714 164.017 429.205 163.916 429.618 163.714C430.038 163.504 430.447 163.189 430.844 162.769V160.822ZM424.477 155.816C425.804 154.601 427.402 153.994 429.269 153.994C429.944 153.994 430.548 154.106 431.08 154.331C431.613 154.549 432.063 154.856 432.43 155.254C432.798 155.644 433.075 156.112 433.263 156.66C433.458 157.207 433.555 157.807 433.555 158.46V165.75H432.295C432.033 165.75 431.83 165.712 431.688 165.637C431.545 165.555 431.433 165.394 431.35 165.154L431.103 164.321C430.81 164.584 430.525 164.816 430.248 165.019C429.97 165.214 429.682 165.379 429.382 165.514C429.082 165.649 428.759 165.75 428.414 165.818C428.077 165.893 427.702 165.93 427.289 165.93C426.802 165.93 426.352 165.866 425.939 165.739C425.527 165.604 425.17 165.405 424.87 165.142C424.57 164.88 424.338 164.554 424.173 164.164C424.008 163.774 423.925 163.32 423.925 162.802C423.925 162.51 423.974 162.221 424.072 161.936C424.169 161.644 424.327 161.366 424.544 161.104C424.769 160.841 425.058 160.594 425.41 160.361C425.763 160.129 426.194 159.926 426.704 159.754C427.222 159.581 427.822 159.442 428.504 159.337C429.187 159.225 429.967 159.157 430.844 159.135V158.46C430.844 157.687 430.679 157.117 430.349 156.75C430.019 156.375 429.543 156.187 428.92 156.187C428.47 156.187 428.095 156.24 427.795 156.345C427.503 156.45 427.244 156.57 427.019 156.705C426.794 156.832 426.588 156.949 426.4 157.054C426.22 157.159 426.018 157.211 425.793 157.211C425.598 157.211 425.433 157.162 425.298 157.065C425.163 156.96 425.054 156.84 424.972 156.705L424.477 155.816ZM438.771 155.625C439.004 155.392 439.247 155.179 439.502 154.984C439.765 154.781 440.039 154.612 440.324 154.477C440.616 154.335 440.927 154.226 441.257 154.151C441.587 154.069 441.947 154.027 442.337 154.027C442.967 154.027 443.526 154.136 444.014 154.354C444.501 154.564 444.906 154.864 445.229 155.254C445.559 155.636 445.806 156.097 445.971 156.637C446.144 157.17 446.23 157.759 446.23 158.404V165.75H443.451V158.404C443.451 157.699 443.29 157.155 442.967 156.772C442.645 156.382 442.154 156.187 441.494 156.187C441.014 156.187 440.564 156.296 440.144 156.514C439.724 156.731 439.326 157.027 438.951 157.402V165.75H436.172V154.207H437.871C438.231 154.207 438.467 154.376 438.58 154.714L438.771 155.625ZM454.97 160.822C454.168 160.86 453.493 160.931 452.945 161.036C452.398 161.134 451.959 161.261 451.629 161.419C451.299 161.576 451.063 161.76 450.92 161.97C450.778 162.18 450.706 162.409 450.706 162.656C450.706 163.144 450.849 163.492 451.134 163.702C451.426 163.912 451.805 164.017 452.27 164.017C452.84 164.017 453.331 163.916 453.744 163.714C454.164 163.504 454.573 163.189 454.97 162.769V160.822ZM448.603 155.816C449.93 154.601 451.528 153.994 453.395 153.994C454.07 153.994 454.674 154.106 455.206 154.331C455.739 154.549 456.189 154.856 456.556 155.254C456.924 155.644 457.201 156.112 457.389 156.66C457.584 157.207 457.681 157.807 457.681 158.46V165.75H456.421C456.159 165.75 455.956 165.712 455.814 165.637C455.671 165.555 455.559 165.394 455.476 165.154L455.229 164.321C454.936 164.584 454.651 164.816 454.374 165.019C454.096 165.214 453.808 165.379 453.508 165.514C453.208 165.649 452.885 165.75 452.54 165.818C452.203 165.893 451.828 165.93 451.415 165.93C450.928 165.93 450.478 165.866 450.065 165.739C449.653 165.604 449.296 165.405 448.996 165.142C448.696 164.88 448.464 164.554 448.299 164.164C448.134 163.774 448.051 163.32 448.051 162.802C448.051 162.51 448.1 162.221 448.198 161.936C448.295 161.644 448.453 161.366 448.67 161.104C448.895 160.841 449.184 160.594 449.536 160.361C449.889 160.129 450.32 159.926 450.83 159.754C451.348 159.581 451.948 159.442 452.63 159.337C453.313 159.225 454.093 159.157 454.97 159.135V158.46C454.97 157.687 454.805 157.117 454.475 156.75C454.145 156.375 453.669 156.187 453.046 156.187C452.596 156.187 452.221 156.24 451.921 156.345C451.629 156.45 451.37 156.57 451.145 156.705C450.92 156.832 450.714 156.949 450.526 157.054C450.346 157.159 450.144 157.211 449.919 157.211C449.724 157.211 449.559 157.162 449.424 157.065C449.289 156.96 449.18 156.84 449.098 156.705L448.603 155.816ZM464.517 159.697C464.862 159.697 465.162 159.652 465.417 159.562C465.672 159.465 465.882 159.334 466.047 159.169C466.22 159.004 466.347 158.805 466.43 158.572C466.52 158.34 466.565 158.085 466.565 157.807C466.565 157.237 466.392 156.787 466.047 156.457C465.71 156.12 465.2 155.951 464.517 155.951C463.835 155.951 463.321 156.12 462.976 156.457C462.638 156.787 462.47 157.237 462.47 157.807C462.47 158.077 462.511 158.329 462.593 158.561C462.683 158.794 462.811 158.996 462.976 159.169C463.148 159.334 463.362 159.465 463.617 159.562C463.88 159.652 464.18 159.697 464.517 159.697ZM467.656 166.268C467.656 166.043 467.588 165.859 467.453 165.716C467.318 165.574 467.135 165.465 466.902 165.39C466.67 165.307 466.396 165.247 466.081 165.21C465.773 165.172 465.443 165.146 465.091 165.131C464.746 165.109 464.386 165.09 464.011 165.075C463.643 165.06 463.283 165.03 462.931 164.985C462.623 165.157 462.372 165.36 462.177 165.592C461.99 165.825 461.896 166.095 461.896 166.403C461.896 166.605 461.945 166.793 462.042 166.965C462.147 167.145 462.308 167.299 462.526 167.426C462.751 167.554 463.04 167.651 463.392 167.719C463.745 167.794 464.176 167.831 464.686 167.831C465.203 167.831 465.65 167.79 466.025 167.708C466.4 167.633 466.707 167.524 466.947 167.381C467.195 167.246 467.375 167.081 467.487 166.886C467.6 166.699 467.656 166.493 467.656 166.268ZM470.423 154.601V155.636C470.423 155.966 470.225 156.169 469.827 156.244L468.792 156.435C468.95 156.832 469.028 157.267 469.028 157.74C469.028 158.31 468.912 158.827 468.68 159.292C468.455 159.75 468.14 160.14 467.735 160.462C467.33 160.785 466.85 161.036 466.295 161.216C465.747 161.389 465.155 161.475 464.517 161.475C464.292 161.475 464.075 161.464 463.865 161.441C463.655 161.419 463.448 161.389 463.246 161.351C462.886 161.569 462.706 161.812 462.706 162.082C462.706 162.315 462.811 162.487 463.021 162.6C463.238 162.705 463.523 162.78 463.876 162.825C464.228 162.87 464.63 162.9 465.08 162.915C465.53 162.922 465.991 162.945 466.463 162.982C466.936 163.02 467.397 163.087 467.847 163.185C468.297 163.275 468.698 163.421 469.051 163.624C469.403 163.826 469.685 164.104 469.895 164.456C470.112 164.801 470.221 165.247 470.221 165.795C470.221 166.305 470.093 166.8 469.838 167.28C469.591 167.76 469.227 168.188 468.747 168.562C468.275 168.938 467.69 169.238 466.992 169.463C466.302 169.695 465.515 169.811 464.63 169.811C463.76 169.811 463.002 169.725 462.357 169.553C461.712 169.388 461.176 169.163 460.748 168.878C460.321 168.6 460.002 168.278 459.792 167.91C459.582 167.543 459.477 167.16 459.477 166.763C459.477 166.223 459.638 165.773 459.961 165.412C460.291 165.045 460.741 164.752 461.311 164.535C461.003 164.377 460.76 164.167 460.58 163.905C460.4 163.642 460.31 163.297 460.31 162.87C460.31 162.697 460.34 162.521 460.4 162.341C460.467 162.154 460.561 161.97 460.681 161.79C460.808 161.61 460.966 161.441 461.153 161.284C461.341 161.119 461.562 160.972 461.817 160.845C461.232 160.53 460.771 160.11 460.433 159.585C460.103 159.06 459.938 158.445 459.938 157.74C459.938 157.17 460.051 156.656 460.276 156.199C460.508 155.734 460.827 155.34 461.232 155.017C461.645 154.687 462.128 154.436 462.683 154.264C463.246 154.091 463.857 154.005 464.517 154.005C465.012 154.005 465.477 154.057 465.912 154.162C466.347 154.26 466.745 154.406 467.105 154.601H470.423ZM475.065 154.207V165.75H472.275V154.207H475.065ZM475.448 150.844C475.448 151.084 475.399 151.309 475.302 151.519C475.204 151.729 475.073 151.912 474.908 152.07C474.75 152.227 474.563 152.355 474.345 152.452C474.128 152.542 473.895 152.587 473.648 152.587C473.408 152.587 473.179 152.542 472.962 152.452C472.752 152.355 472.568 152.227 472.41 152.07C472.253 151.912 472.125 151.729 472.028 151.519C471.938 151.309 471.893 151.084 471.893 150.844C471.893 150.596 471.938 150.364 472.028 150.146C472.125 149.929 472.253 149.741 472.41 149.584C472.568 149.426 472.752 149.302 472.962 149.212C473.179 149.115 473.408 149.066 473.648 149.066C473.895 149.066 474.128 149.115 474.345 149.212C474.563 149.302 474.75 149.426 474.908 149.584C475.073 149.741 475.204 149.929 475.302 150.146C475.399 150.364 475.448 150.596 475.448 150.844ZM480.497 155.625C480.73 155.392 480.973 155.179 481.228 154.984C481.491 154.781 481.765 154.612 482.05 154.477C482.342 154.335 482.653 154.226 482.983 154.151C483.313 154.069 483.673 154.027 484.063 154.027C484.693 154.027 485.252 154.136 485.74 154.354C486.227 154.564 486.632 154.864 486.955 155.254C487.285 155.636 487.532 156.097 487.697 156.637C487.87 157.17 487.956 157.759 487.956 158.404V165.75H485.177V158.404C485.177 157.699 485.016 157.155 484.693 156.772C484.371 156.382 483.88 156.187 483.22 156.187C482.74 156.187 482.29 156.296 481.87 156.514C481.45 156.731 481.052 157.027 480.677 157.402V165.75H477.898V154.207H479.597C479.957 154.207 480.193 154.376 480.306 154.714L480.497 155.625ZM494.817 159.697C495.162 159.697 495.462 159.652 495.717 159.562C495.972 159.465 496.182 159.334 496.347 159.169C496.52 159.004 496.647 158.805 496.73 158.572C496.82 158.34 496.865 158.085 496.865 157.807C496.865 157.237 496.692 156.787 496.347 156.457C496.01 156.12 495.5 155.951 494.817 155.951C494.135 155.951 493.621 156.12 493.276 156.457C492.939 156.787 492.77 157.237 492.77 157.807C492.77 158.077 492.811 158.329 492.894 158.561C492.984 158.794 493.111 158.996 493.276 159.169C493.449 159.334 493.662 159.465 493.917 159.562C494.18 159.652 494.48 159.697 494.817 159.697ZM497.956 166.268C497.956 166.043 497.889 165.859 497.754 165.716C497.619 165.574 497.435 165.465 497.202 165.39C496.97 165.307 496.696 165.247 496.381 165.21C496.074 165.172 495.744 165.146 495.391 165.131C495.046 165.109 494.686 165.09 494.311 165.075C493.944 165.06 493.584 165.03 493.231 164.985C492.924 165.157 492.672 165.36 492.477 165.592C492.29 165.825 492.196 166.095 492.196 166.403C492.196 166.605 492.245 166.793 492.342 166.965C492.447 167.145 492.609 167.299 492.826 167.426C493.051 167.554 493.34 167.651 493.692 167.719C494.045 167.794 494.476 167.831 494.986 167.831C495.504 167.831 495.95 167.79 496.325 167.708C496.7 167.633 497.007 167.524 497.247 167.381C497.495 167.246 497.675 167.081 497.787 166.886C497.9 166.699 497.956 166.493 497.956 166.268ZM500.724 154.601V155.636C500.724 155.966 500.525 156.169 500.127 156.244L499.092 156.435C499.25 156.832 499.329 157.267 499.329 157.74C499.329 158.31 499.212 158.827 498.98 159.292C498.755 159.75 498.44 160.14 498.035 160.462C497.63 160.785 497.15 161.036 496.595 161.216C496.047 161.389 495.455 161.475 494.817 161.475C494.592 161.475 494.375 161.464 494.165 161.441C493.955 161.419 493.749 161.389 493.546 161.351C493.186 161.569 493.006 161.812 493.006 162.082C493.006 162.315 493.111 162.487 493.321 162.6C493.539 162.705 493.824 162.78 494.176 162.825C494.529 162.87 494.93 162.9 495.38 162.915C495.83 162.922 496.291 162.945 496.764 162.982C497.236 163.02 497.697 163.087 498.147 163.185C498.597 163.275 498.999 163.421 499.351 163.624C499.704 163.826 499.985 164.104 500.195 164.456C500.412 164.801 500.521 165.247 500.521 165.795C500.521 166.305 500.394 166.8 500.139 167.28C499.891 167.76 499.527 168.188 499.047 168.562C498.575 168.938 497.99 169.238 497.292 169.463C496.602 169.695 495.815 169.811 494.93 169.811C494.06 169.811 493.302 169.725 492.657 169.553C492.012 169.388 491.476 169.163 491.049 168.878C490.621 168.6 490.302 168.278 490.092 167.91C489.882 167.543 489.777 167.16 489.777 166.763C489.777 166.223 489.939 165.773 490.261 165.412C490.591 165.045 491.041 164.752 491.611 164.535C491.304 164.377 491.06 164.167 490.88 163.905C490.7 163.642 490.61 163.297 490.61 162.87C490.61 162.697 490.64 162.521 490.7 162.341C490.767 162.154 490.861 161.97 490.981 161.79C491.109 161.61 491.266 161.441 491.454 161.284C491.641 161.119 491.862 160.972 492.117 160.845C491.532 160.53 491.071 160.11 490.734 159.585C490.404 159.06 490.239 158.445 490.239 157.74C490.239 157.17 490.351 156.656 490.576 156.199C490.809 155.734 491.127 155.34 491.532 155.017C491.945 154.687 492.429 154.436 492.984 154.264C493.546 154.091 494.157 154.005 494.817 154.005C495.312 154.005 495.777 154.057 496.212 154.162C496.647 154.26 497.045 154.406 497.405 154.601H500.724ZM521.5 149.482L514.93 165.75H512.196L505.626 149.482H508.056C508.318 149.482 508.532 149.546 508.697 149.674C508.862 149.801 508.986 149.966 509.068 150.169L512.905 160.091C513.032 160.414 513.152 160.77 513.265 161.16C513.385 161.542 513.497 161.944 513.602 162.364C513.692 161.944 513.79 161.542 513.895 161.16C514 160.77 514.116 160.414 514.243 160.091L518.057 150.169C518.117 149.996 518.233 149.839 518.406 149.696C518.586 149.554 518.803 149.482 519.058 149.482H521.5ZM528.471 157.661C529.026 157.661 529.51 157.594 529.922 157.459C530.335 157.316 530.676 157.117 530.946 156.862C531.223 156.6 531.43 156.285 531.565 155.917C531.7 155.542 531.767 155.126 531.767 154.669C531.767 154.234 531.7 153.84 531.565 153.487C531.43 153.135 531.227 152.835 530.957 152.587C530.687 152.34 530.346 152.152 529.933 152.025C529.521 151.89 529.033 151.822 528.471 151.822H526.21V157.661H528.471ZM528.471 149.482C529.558 149.482 530.5 149.61 531.295 149.865C532.09 150.12 532.746 150.476 533.263 150.934C533.781 151.391 534.163 151.939 534.411 152.576C534.666 153.214 534.793 153.911 534.793 154.669C534.793 155.456 534.662 156.18 534.4 156.84C534.137 157.492 533.743 158.055 533.218 158.527C532.693 159 532.033 159.367 531.238 159.63C530.451 159.892 529.528 160.024 528.471 160.024H526.21V165.75H523.183V149.482H528.471ZM550.828 149.482V165.75H549.275C549.035 165.75 548.833 165.712 548.668 165.637C548.51 165.555 548.356 165.42 548.206 165.232L539.713 154.388C539.758 154.882 539.78 155.34 539.78 155.76V165.75H537.114V149.482H538.7C538.828 149.482 538.936 149.49 539.026 149.505C539.124 149.512 539.206 149.535 539.274 149.572C539.349 149.602 539.42 149.651 539.488 149.719C539.555 149.779 539.63 149.861 539.713 149.966L548.24 160.856C548.218 160.594 548.199 160.335 548.184 160.08C548.169 159.825 548.161 159.589 548.161 159.371V149.482H550.828ZM566.525 156.457C566.45 156.577 566.372 156.664 566.289 156.716C566.207 156.761 566.102 156.784 565.974 156.784C565.839 156.784 565.693 156.746 565.535 156.671C565.385 156.596 565.209 156.514 565.007 156.424C564.804 156.326 564.572 156.24 564.309 156.165C564.054 156.09 563.75 156.052 563.398 156.052C562.85 156.052 562.419 156.169 562.104 156.401C561.797 156.634 561.643 156.937 561.643 157.312C561.643 157.56 561.722 157.77 561.879 157.942C562.044 158.107 562.258 158.254 562.52 158.381C562.79 158.509 563.094 158.625 563.432 158.73C563.769 158.827 564.11 158.936 564.455 159.056C564.808 159.176 565.153 159.315 565.49 159.472C565.828 159.622 566.128 159.817 566.39 160.057C566.66 160.29 566.874 160.571 567.032 160.901C567.197 161.231 567.279 161.629 567.279 162.094C567.279 162.649 567.178 163.162 566.975 163.635C566.78 164.1 566.488 164.505 566.098 164.85C565.708 165.187 565.224 165.454 564.647 165.649C564.077 165.836 563.417 165.93 562.667 165.93C562.269 165.93 561.879 165.893 561.497 165.818C561.122 165.75 560.758 165.652 560.405 165.525C560.06 165.397 559.738 165.247 559.438 165.075C559.145 164.902 558.887 164.715 558.662 164.512L559.303 163.455C559.385 163.327 559.483 163.23 559.595 163.162C559.708 163.095 559.85 163.061 560.023 163.061C560.195 163.061 560.357 163.11 560.507 163.207C560.664 163.305 560.844 163.41 561.047 163.522C561.249 163.635 561.485 163.74 561.755 163.837C562.033 163.935 562.382 163.984 562.802 163.984C563.132 163.984 563.413 163.946 563.645 163.871C563.885 163.789 564.08 163.684 564.23 163.556C564.388 163.429 564.5 163.282 564.568 163.117C564.643 162.945 564.68 162.769 564.68 162.589C564.68 162.319 564.598 162.097 564.433 161.925C564.275 161.752 564.062 161.602 563.792 161.475C563.529 161.347 563.225 161.235 562.88 161.137C562.543 161.032 562.194 160.92 561.834 160.8C561.482 160.68 561.133 160.541 560.788 160.384C560.45 160.219 560.147 160.012 559.877 159.765C559.614 159.517 559.4 159.214 559.235 158.854C559.078 158.494 558.999 158.059 558.999 157.549C558.999 157.076 559.093 156.626 559.28 156.199C559.468 155.771 559.742 155.4 560.102 155.085C560.469 154.762 560.923 154.507 561.463 154.32C562.01 154.125 562.64 154.027 563.353 154.027C564.148 154.027 564.872 154.159 565.524 154.421C566.177 154.684 566.72 155.029 567.155 155.456L566.525 156.457ZM576.807 158.651C576.807 158.291 576.754 157.954 576.649 157.639C576.552 157.316 576.402 157.035 576.199 156.795C575.997 156.555 575.738 156.367 575.423 156.232C575.116 156.09 574.756 156.019 574.343 156.019C573.541 156.019 572.907 156.247 572.442 156.705C571.984 157.162 571.692 157.811 571.564 158.651H576.807ZM571.508 160.327C571.553 160.92 571.658 161.434 571.823 161.869C571.988 162.296 572.206 162.652 572.476 162.938C572.746 163.215 573.064 163.425 573.432 163.567C573.807 163.702 574.219 163.77 574.669 163.77C575.119 163.77 575.506 163.717 575.828 163.612C576.158 163.507 576.443 163.391 576.683 163.264C576.931 163.136 577.144 163.02 577.324 162.915C577.512 162.81 577.692 162.757 577.864 162.757C578.097 162.757 578.269 162.844 578.382 163.016L579.181 164.029C578.873 164.389 578.528 164.692 578.146 164.94C577.763 165.18 577.362 165.375 576.942 165.525C576.529 165.667 576.106 165.769 575.671 165.829C575.243 165.889 574.827 165.919 574.422 165.919C573.619 165.919 572.873 165.787 572.183 165.525C571.493 165.255 570.893 164.861 570.383 164.344C569.873 163.819 569.472 163.174 569.179 162.409C568.887 161.636 568.741 160.744 568.741 159.731C568.741 158.944 568.868 158.205 569.123 157.515C569.378 156.817 569.742 156.214 570.214 155.704C570.694 155.186 571.276 154.777 571.958 154.477C572.648 154.177 573.424 154.027 574.287 154.027C575.014 154.027 575.686 154.144 576.301 154.376C576.916 154.609 577.444 154.95 577.887 155.4C578.329 155.842 578.674 156.39 578.922 157.042C579.177 157.687 579.304 158.426 579.304 159.259C579.304 159.679 579.259 159.964 579.169 160.114C579.079 160.256 578.907 160.327 578.652 160.327H571.508ZM584.011 156.21C584.371 155.52 584.798 154.98 585.293 154.59C585.788 154.192 586.373 153.994 587.048 153.994C587.581 153.994 588.008 154.11 588.331 154.342L588.151 156.424C588.113 156.559 588.057 156.656 587.982 156.716C587.915 156.769 587.821 156.795 587.701 156.795C587.588 156.795 587.42 156.776 587.195 156.739C586.977 156.701 586.763 156.682 586.553 156.682C586.246 156.682 585.972 156.727 585.732 156.817C585.492 156.907 585.275 157.039 585.08 157.211C584.892 157.376 584.723 157.579 584.573 157.819C584.431 158.059 584.296 158.332 584.168 158.64V165.75H581.39V154.207H583.021C583.306 154.207 583.505 154.26 583.617 154.365C583.73 154.462 583.805 154.642 583.842 154.905L584.011 156.21ZM600.189 154.207L595.611 165.75H593.091L588.512 154.207H590.807C591.017 154.207 591.189 154.256 591.324 154.354C591.467 154.451 591.561 154.575 591.606 154.725L593.833 160.89C593.953 161.25 594.058 161.602 594.148 161.947C594.238 162.292 594.317 162.637 594.384 162.982C594.459 162.637 594.542 162.292 594.632 161.947C594.722 161.602 594.831 161.25 594.958 160.89L597.231 154.725C597.283 154.575 597.377 154.451 597.512 154.354C597.647 154.256 597.808 154.207 597.996 154.207H600.189ZM608.755 158.651C608.755 158.291 608.703 157.954 608.598 157.639C608.5 157.316 608.35 157.035 608.148 156.795C607.945 156.555 607.686 156.367 607.371 156.232C607.064 156.09 606.704 156.019 606.291 156.019C605.489 156.019 604.855 156.247 604.39 156.705C603.933 157.162 603.64 157.811 603.513 158.651H608.755ZM603.456 160.327C603.501 160.92 603.606 161.434 603.771 161.869C603.936 162.296 604.154 162.652 604.424 162.938C604.694 163.215 605.013 163.425 605.38 163.567C605.755 163.702 606.168 163.77 606.618 163.77C607.068 163.77 607.454 163.717 607.776 163.612C608.106 163.507 608.391 163.391 608.631 163.264C608.879 163.136 609.093 163.02 609.273 162.915C609.46 162.81 609.64 162.757 609.813 162.757C610.045 162.757 610.218 162.844 610.33 163.016L611.129 164.029C610.821 164.389 610.476 164.692 610.094 164.94C609.711 165.18 609.31 165.375 608.89 165.525C608.478 165.667 608.054 165.769 607.619 165.829C607.191 165.889 606.775 165.919 606.37 165.919C605.568 165.919 604.821 165.787 604.131 165.525C603.441 165.255 602.841 164.861 602.331 164.344C601.821 163.819 601.42 163.174 601.128 162.409C600.835 161.636 600.689 160.744 600.689 159.731C600.689 158.944 600.816 158.205 601.071 157.515C601.326 156.817 601.69 156.214 602.163 155.704C602.643 155.186 603.224 154.777 603.906 154.477C604.596 154.177 605.373 154.027 606.235 154.027C606.963 154.027 607.634 154.144 608.249 154.376C608.864 154.609 609.393 154.95 609.835 155.4C610.278 155.842 610.623 156.39 610.87 157.042C611.125 157.687 611.253 158.426 611.253 159.259C611.253 159.679 611.208 159.964 611.118 160.114C611.028 160.256 610.855 160.327 610.6 160.327H603.456ZM615.959 156.21C616.319 155.52 616.747 154.98 617.242 154.59C617.737 154.192 618.322 153.994 618.997 153.994C619.529 153.994 619.957 154.11 620.279 154.342L620.099 156.424C620.062 156.559 620.005 156.656 619.93 156.716C619.863 156.769 619.769 156.795 619.649 156.795C619.537 156.795 619.368 156.776 619.143 156.739C618.925 156.701 618.712 156.682 618.502 156.682C618.194 156.682 617.92 156.727 617.68 156.817C617.44 156.907 617.223 157.039 617.028 157.211C616.84 157.376 616.672 157.579 616.522 157.819C616.379 158.059 616.244 158.332 616.117 158.64V165.75H613.338V154.207H614.969C615.254 154.207 615.453 154.26 615.565 154.365C615.678 154.462 615.753 154.642 615.79 154.905L615.959 156.21Z" fill="#3F3F3F"/>
<path d="M254.659 189.785C254.659 191.015 254.475 192.132 254.108 193.137C253.74 194.135 253.223 194.99 252.555 195.702C251.888 196.407 251.085 196.955 250.148 197.345C249.218 197.727 248.19 197.919 247.065 197.919C245.94 197.919 244.913 197.727 243.983 197.345C243.053 196.955 242.254 196.407 241.587 195.702C240.919 194.99 240.402 194.135 240.034 193.137C239.667 192.132 239.483 191.015 239.483 189.785C239.483 188.562 239.667 187.452 240.034 186.455C240.402 185.45 240.919 184.595 241.587 183.89C242.254 183.177 243.053 182.626 243.983 182.236C244.913 181.846 245.94 181.651 247.065 181.651C248.19 181.651 249.218 181.846 250.148 182.236C251.085 182.619 251.888 183.166 252.555 183.879C253.223 184.591 253.74 185.45 254.108 186.455C254.475 187.452 254.659 188.562 254.659 189.785ZM253.467 189.785C253.467 188.675 253.313 187.677 253.005 186.792C252.698 185.907 252.263 185.157 251.7 184.542C251.138 183.927 250.463 183.459 249.675 183.136C248.888 182.806 248.018 182.641 247.065 182.641C246.12 182.641 245.254 182.806 244.467 183.136C243.679 183.459 243 183.927 242.43 184.542C241.868 185.157 241.429 185.907 241.114 186.792C240.807 187.677 240.653 188.675 240.653 189.785C240.653 190.902 240.807 191.904 241.114 192.789C241.429 193.666 241.868 194.412 242.43 195.027C243 195.642 243.679 196.111 244.467 196.434C245.254 196.756 246.12 196.917 247.065 196.917C248.018 196.917 248.888 196.756 249.675 196.434C250.463 196.111 251.138 195.642 251.7 195.027C252.263 194.412 252.698 193.666 253.005 192.789C253.313 191.904 253.467 190.902 253.467 189.785ZM258.626 195.309C258.843 195.631 259.068 195.905 259.301 196.13C259.541 196.347 259.792 196.527 260.054 196.67C260.317 196.805 260.594 196.902 260.887 196.962C261.187 197.022 261.502 197.052 261.832 197.052C262.492 197.052 263.069 196.932 263.564 196.692C264.059 196.452 264.472 196.115 264.802 195.68C265.139 195.237 265.391 194.712 265.556 194.105C265.728 193.49 265.814 192.815 265.814 192.08C265.814 190.415 265.507 189.192 264.892 188.412C264.277 187.625 263.396 187.231 262.248 187.231C261.506 187.231 260.834 187.422 260.234 187.805C259.634 188.187 259.098 188.72 258.626 189.402V195.309ZM258.581 188.57C259.076 187.895 259.653 187.359 260.313 186.961C260.981 186.564 261.727 186.365 262.552 186.365C263.924 186.365 264.993 186.841 265.758 187.794C266.531 188.746 266.917 190.175 266.917 192.08C266.917 192.897 266.808 193.662 266.591 194.375C266.381 195.08 266.066 195.695 265.646 196.22C265.233 196.737 264.723 197.146 264.116 197.446C263.516 197.746 262.822 197.896 262.034 197.896C261.277 197.896 260.621 197.758 260.066 197.48C259.511 197.202 259.031 196.794 258.626 196.254V201.71H257.546V186.556H258.142C258.329 186.556 258.438 186.65 258.468 186.837L258.581 188.57ZM277.813 191.022C277.813 190.422 277.726 189.886 277.554 189.414C277.389 188.934 277.153 188.529 276.845 188.199C276.538 187.869 276.17 187.617 275.743 187.445C275.323 187.265 274.858 187.175 274.348 187.175C273.77 187.175 273.253 187.265 272.795 187.445C272.338 187.625 271.94 187.884 271.603 188.221C271.273 188.559 271.006 188.964 270.804 189.436C270.601 189.909 270.466 190.437 270.399 191.022H277.813ZM270.343 191.709V191.922C270.343 192.762 270.44 193.501 270.635 194.139C270.83 194.776 271.108 195.312 271.468 195.747C271.828 196.175 272.263 196.497 272.773 196.715C273.283 196.932 273.853 197.041 274.483 197.041C275.045 197.041 275.533 196.981 275.945 196.861C276.358 196.734 276.703 196.595 276.98 196.445C277.265 196.287 277.49 196.149 277.655 196.029C277.82 195.901 277.94 195.837 278.015 195.837C278.113 195.837 278.188 195.875 278.24 195.95L278.533 196.31C278.353 196.535 278.113 196.745 277.813 196.94C277.52 197.135 277.19 197.304 276.823 197.446C276.463 197.581 276.073 197.69 275.653 197.773C275.24 197.855 274.824 197.896 274.404 197.896C273.639 197.896 272.941 197.765 272.311 197.502C271.681 197.232 271.141 196.842 270.691 196.332C270.241 195.822 269.893 195.2 269.645 194.465C269.405 193.722 269.285 192.875 269.285 191.922C269.285 191.12 269.398 190.381 269.623 189.706C269.855 189.024 270.185 188.439 270.613 187.951C271.048 187.456 271.576 187.07 272.199 186.792C272.829 186.515 273.541 186.376 274.336 186.376C274.966 186.376 275.551 186.485 276.091 186.702C276.631 186.92 277.1 187.239 277.498 187.659C277.895 188.071 278.206 188.581 278.431 189.189C278.664 189.796 278.78 190.494 278.78 191.281C278.78 191.446 278.758 191.559 278.713 191.619C278.668 191.679 278.593 191.709 278.488 191.709H270.343ZM282.717 188.514C283.235 187.869 283.831 187.351 284.506 186.961C285.189 186.571 285.946 186.376 286.779 186.376C287.394 186.376 287.934 186.474 288.399 186.669C288.871 186.864 289.261 187.145 289.569 187.512C289.876 187.88 290.109 188.322 290.266 188.84C290.424 189.357 290.502 189.942 290.502 190.595V197.75H289.422V190.595C289.422 189.545 289.182 188.724 288.702 188.131C288.222 187.531 287.491 187.231 286.509 187.231C285.781 187.231 285.099 187.419 284.461 187.794C283.831 188.161 283.269 188.675 282.774 189.335V197.75H281.694V186.556H282.29C282.477 186.556 282.586 186.65 282.616 186.837L282.717 188.514ZM293.772 190.617H299.003V191.529H293.772V190.617ZM308.546 187.94C308.486 188.045 308.399 188.097 308.287 188.097C308.204 188.097 308.099 188.052 307.972 187.962C307.844 187.865 307.672 187.76 307.454 187.647C307.244 187.527 306.982 187.422 306.667 187.332C306.352 187.235 305.969 187.186 305.519 187.186C305.114 187.186 304.743 187.246 304.406 187.366C304.076 187.479 303.791 187.632 303.551 187.827C303.318 188.022 303.138 188.251 303.011 188.514C302.883 188.769 302.819 189.039 302.819 189.324C302.819 189.676 302.909 189.969 303.089 190.201C303.269 190.434 303.502 190.632 303.787 190.797C304.079 190.962 304.413 191.105 304.788 191.225C305.163 191.345 305.542 191.465 305.924 191.585C306.314 191.705 306.697 191.84 307.072 191.99C307.447 192.132 307.777 192.312 308.062 192.53C308.354 192.747 308.591 193.014 308.771 193.329C308.951 193.644 309.041 194.026 309.041 194.476C309.041 194.964 308.954 195.417 308.782 195.837C308.609 196.257 308.354 196.621 308.017 196.929C307.687 197.236 307.278 197.48 306.791 197.66C306.303 197.84 305.744 197.93 305.114 197.93C304.327 197.93 303.648 197.806 303.078 197.559C302.508 197.304 301.998 196.974 301.548 196.569L301.796 196.186C301.833 196.126 301.874 196.081 301.919 196.051C301.972 196.021 302.039 196.006 302.122 196.006C302.219 196.006 302.336 196.066 302.471 196.186C302.613 196.306 302.801 196.437 303.033 196.58C303.266 196.715 303.551 196.842 303.888 196.962C304.233 197.082 304.657 197.142 305.159 197.142C305.632 197.142 306.048 197.079 306.408 196.951C306.768 196.816 307.068 196.636 307.308 196.411C307.548 196.186 307.728 195.924 307.848 195.624C307.976 195.316 308.039 194.994 308.039 194.656C308.039 194.281 307.949 193.97 307.769 193.722C307.589 193.475 307.353 193.265 307.061 193.092C306.768 192.92 306.434 192.774 306.059 192.654C305.692 192.534 305.313 192.414 304.923 192.294C304.533 192.174 304.151 192.042 303.776 191.9C303.408 191.757 303.078 191.577 302.786 191.36C302.493 191.142 302.257 190.88 302.077 190.572C301.897 190.257 301.807 189.867 301.807 189.402C301.807 189.005 301.893 188.622 302.066 188.255C302.238 187.887 302.482 187.565 302.797 187.287C303.119 187.01 303.509 186.789 303.967 186.624C304.424 186.459 304.938 186.376 305.508 186.376C306.191 186.376 306.794 186.474 307.319 186.669C307.852 186.864 308.336 187.164 308.771 187.569L308.546 187.94ZM316.382 186.376C317.185 186.376 317.901 186.515 318.531 186.792C319.169 187.062 319.705 187.449 320.14 187.951C320.575 188.454 320.905 189.061 321.13 189.774C321.362 190.479 321.479 191.27 321.479 192.147C321.479 193.025 321.362 193.816 321.13 194.521C320.905 195.226 320.575 195.83 320.14 196.332C319.705 196.835 319.169 197.221 318.531 197.491C317.901 197.761 317.185 197.896 316.382 197.896C315.58 197.896 314.86 197.761 314.222 197.491C313.592 197.221 313.056 196.835 312.614 196.332C312.179 195.83 311.845 195.226 311.612 194.521C311.387 193.816 311.275 193.025 311.275 192.147C311.275 191.27 311.387 190.479 311.612 189.774C311.845 189.061 312.179 188.454 312.614 187.951C313.056 187.449 313.592 187.062 314.222 186.792C314.86 186.515 315.58 186.376 316.382 186.376ZM316.382 197.052C317.05 197.052 317.631 196.94 318.126 196.715C318.629 196.482 319.045 196.152 319.375 195.725C319.712 195.297 319.964 194.784 320.129 194.184C320.294 193.576 320.376 192.897 320.376 192.147C320.376 191.405 320.294 190.73 320.129 190.122C319.964 189.515 319.712 188.997 319.375 188.57C319.045 188.135 318.629 187.801 318.126 187.569C317.631 187.336 317.05 187.22 316.382 187.22C315.715 187.22 315.13 187.336 314.627 187.569C314.132 187.801 313.716 188.135 313.379 188.57C313.049 188.997 312.797 189.515 312.625 190.122C312.46 190.73 312.377 191.405 312.377 192.147C312.377 192.897 312.46 193.576 312.625 194.184C312.797 194.784 313.049 195.297 313.379 195.725C313.716 196.152 314.132 196.482 314.627 196.715C315.13 196.94 315.715 197.052 316.382 197.052ZM333.181 186.556V197.75H332.585C332.398 197.75 332.289 197.652 332.259 197.457L332.158 195.792C331.64 196.437 331.04 196.955 330.358 197.345C329.683 197.735 328.929 197.93 328.096 197.93C327.474 197.93 326.93 197.833 326.465 197.637C326 197.442 325.614 197.161 325.306 196.794C324.999 196.426 324.766 195.984 324.609 195.466C324.451 194.949 324.373 194.364 324.373 193.711V186.556H325.453V193.711C325.453 194.761 325.693 195.586 326.173 196.186C326.653 196.779 327.384 197.075 328.366 197.075C329.094 197.075 329.773 196.891 330.403 196.524C331.04 196.149 331.606 195.631 332.101 194.971V186.556H333.181ZM337.891 189.256C338.063 188.799 338.258 188.394 338.476 188.041C338.701 187.681 338.956 187.377 339.241 187.13C339.533 186.882 339.856 186.695 340.208 186.567C340.568 186.432 340.966 186.365 341.401 186.365C341.633 186.365 341.862 186.387 342.087 186.432C342.312 186.47 342.511 186.541 342.683 186.646L342.593 187.389C342.556 187.509 342.484 187.569 342.379 187.569C342.289 187.569 342.151 187.542 341.963 187.49C341.783 187.437 341.543 187.411 341.243 187.411C340.808 187.411 340.422 187.479 340.084 187.614C339.754 187.741 339.454 187.936 339.184 188.199C338.922 188.461 338.689 188.787 338.487 189.177C338.292 189.56 338.112 190.002 337.947 190.505V197.75H336.867V186.556H337.441C337.568 186.556 337.658 186.582 337.711 186.635C337.763 186.687 337.797 186.777 337.812 186.905L337.891 189.256ZM351.71 188.052C351.673 188.09 351.635 188.124 351.598 188.154C351.568 188.176 351.523 188.187 351.463 188.187C351.388 188.187 351.286 188.139 351.159 188.041C351.031 187.936 350.859 187.824 350.641 187.704C350.424 187.584 350.15 187.475 349.82 187.377C349.498 187.272 349.104 187.22 348.639 187.22C347.994 187.22 347.42 187.336 346.918 187.569C346.423 187.794 346.003 188.12 345.658 188.547C345.313 188.975 345.05 189.492 344.87 190.1C344.698 190.707 344.611 191.39 344.611 192.147C344.611 192.935 344.701 193.632 344.881 194.24C345.069 194.847 345.331 195.361 345.669 195.781C346.006 196.194 346.415 196.509 346.895 196.726C347.375 196.944 347.908 197.052 348.493 197.052C349.033 197.052 349.483 196.989 349.843 196.861C350.21 196.734 350.51 196.595 350.743 196.445C350.983 196.295 351.17 196.156 351.305 196.029C351.44 195.901 351.553 195.837 351.643 195.837C351.733 195.837 351.808 195.875 351.868 195.95L352.149 196.31C351.976 196.535 351.759 196.745 351.496 196.94C351.234 197.135 350.938 197.304 350.608 197.446C350.278 197.589 349.918 197.697 349.528 197.773C349.145 197.855 348.744 197.896 348.324 197.896C347.611 197.896 346.959 197.769 346.366 197.514C345.781 197.251 345.275 196.876 344.848 196.389C344.428 195.894 344.098 195.29 343.858 194.577C343.625 193.865 343.509 193.055 343.509 192.147C343.509 191.292 343.621 190.512 343.846 189.807C344.071 189.102 344.401 188.495 344.836 187.985C345.271 187.475 345.8 187.081 346.423 186.804C347.053 186.519 347.773 186.376 348.583 186.376C349.31 186.376 349.955 186.492 350.518 186.725C351.08 186.957 351.571 187.272 351.991 187.67L351.71 188.052ZM362.429 191.022C362.429 190.422 362.343 189.886 362.171 189.414C362.006 188.934 361.769 188.529 361.462 188.199C361.154 187.869 360.787 187.617 360.359 187.445C359.939 187.265 359.474 187.175 358.964 187.175C358.387 187.175 357.869 187.265 357.412 187.445C356.954 187.625 356.557 187.884 356.219 188.221C355.889 188.559 355.623 188.964 355.421 189.436C355.218 189.909 355.083 190.437 355.016 191.022H362.429ZM354.959 191.709V191.922C354.959 192.762 355.057 193.501 355.252 194.139C355.447 194.776 355.724 195.312 356.084 195.747C356.444 196.175 356.879 196.497 357.389 196.715C357.899 196.932 358.469 197.041 359.099 197.041C359.662 197.041 360.149 196.981 360.562 196.861C360.974 196.734 361.319 196.595 361.597 196.445C361.882 196.287 362.107 196.149 362.272 196.029C362.437 195.901 362.557 195.837 362.632 195.837C362.729 195.837 362.804 195.875 362.857 195.95L363.149 196.31C362.969 196.535 362.729 196.745 362.429 196.94C362.137 197.135 361.807 197.304 361.439 197.446C361.079 197.581 360.689 197.69 360.269 197.773C359.857 197.855 359.441 197.896 359.021 197.896C358.256 197.896 357.558 197.765 356.928 197.502C356.298 197.232 355.758 196.842 355.308 196.332C354.858 195.822 354.509 195.2 354.262 194.465C354.022 193.722 353.902 192.875 353.902 191.922C353.902 191.12 354.014 190.381 354.239 189.706C354.472 189.024 354.802 188.439 355.229 187.951C355.664 187.456 356.193 187.07 356.816 186.792C357.446 186.515 358.158 186.376 358.953 186.376C359.583 186.376 360.168 186.485 360.708 186.702C361.248 186.92 361.717 187.239 362.114 187.659C362.512 188.071 362.823 188.581 363.048 189.189C363.281 189.796 363.397 190.494 363.397 191.281C363.397 191.446 363.374 191.559 363.329 191.619C363.284 191.679 363.209 191.709 363.104 191.709H354.959ZM366.052 196.884C366.052 196.741 366.078 196.606 366.13 196.479C366.183 196.351 366.254 196.242 366.344 196.152C366.442 196.055 366.55 195.98 366.67 195.927C366.798 195.867 366.937 195.837 367.087 195.837C367.229 195.837 367.364 195.867 367.492 195.927C367.619 195.98 367.728 196.055 367.818 196.152C367.915 196.242 367.99 196.351 368.043 196.479C368.103 196.606 368.133 196.741 368.133 196.884C368.133 197.034 368.103 197.172 368.043 197.3C367.99 197.42 367.915 197.529 367.818 197.626C367.728 197.716 367.619 197.788 367.492 197.84C367.364 197.893 367.229 197.919 367.087 197.919C366.794 197.919 366.547 197.821 366.344 197.626C366.149 197.424 366.052 197.176 366.052 196.884ZM382.091 189.695C382.796 189.695 383.426 189.612 383.981 189.447C384.544 189.275 385.016 189.031 385.399 188.716C385.789 188.401 386.085 188.022 386.288 187.58C386.49 187.137 386.591 186.639 386.591 186.084C386.591 184.951 386.22 184.111 385.478 183.564C384.743 183.016 383.666 182.742 382.249 182.742H379.335V189.695H382.091ZM389.156 197.75H388.166C388.039 197.75 387.93 197.731 387.84 197.694C387.758 197.649 387.679 197.57 387.604 197.457L382.496 191C382.436 190.917 382.373 190.846 382.305 190.786C382.245 190.726 382.174 190.681 382.091 190.651C382.016 190.614 381.923 190.587 381.81 190.572C381.705 190.557 381.574 190.55 381.416 190.55H379.335V197.75H378.176V181.831H382.249C384.079 181.831 385.448 182.187 386.355 182.9C387.27 183.605 387.728 184.644 387.728 186.016C387.728 186.624 387.623 187.179 387.413 187.681C387.203 188.184 386.899 188.626 386.501 189.009C386.111 189.384 385.635 189.691 385.073 189.931C384.518 190.171 383.891 190.332 383.194 190.415C383.374 190.527 383.535 190.677 383.678 190.865L389.156 197.75ZM398.487 191.022C398.487 190.422 398.4 189.886 398.228 189.414C398.063 188.934 397.827 188.529 397.519 188.199C397.212 187.869 396.844 187.617 396.417 187.445C395.997 187.265 395.532 187.175 395.022 187.175C394.444 187.175 393.927 187.265 393.469 187.445C393.012 187.625 392.614 187.884 392.277 188.221C391.947 188.559 391.68 188.964 391.478 189.436C391.275 189.909 391.14 190.437 391.073 191.022H398.487ZM391.017 191.709V191.922C391.017 192.762 391.114 193.501 391.309 194.139C391.504 194.776 391.782 195.312 392.142 195.747C392.502 196.175 392.937 196.497 393.447 196.715C393.957 196.932 394.527 197.041 395.157 197.041C395.719 197.041 396.207 196.981 396.619 196.861C397.032 196.734 397.377 196.595 397.654 196.445C397.939 196.287 398.164 196.149 398.329 196.029C398.494 195.901 398.614 195.837 398.689 195.837C398.787 195.837 398.862 195.875 398.914 195.95L399.207 196.31C399.027 196.535 398.787 196.745 398.487 196.94C398.194 197.135 397.864 197.304 397.497 197.446C397.137 197.581 396.747 197.69 396.327 197.773C395.914 197.855 395.498 197.896 395.078 197.896C394.313 197.896 393.615 197.765 392.985 197.502C392.355 197.232 391.815 196.842 391.365 196.332C390.915 195.822 390.567 195.2 390.319 194.465C390.079 193.722 389.959 192.875 389.959 191.922C389.959 191.12 390.072 190.381 390.297 189.706C390.529 189.024 390.859 188.439 391.287 187.951C391.722 187.456 392.25 187.07 392.873 186.792C393.503 186.515 394.215 186.376 395.01 186.376C395.64 186.376 396.225 186.485 396.765 186.702C397.305 186.92 397.774 187.239 398.172 187.659C398.569 188.071 398.88 188.581 399.105 189.189C399.338 189.796 399.454 190.494 399.454 191.281C399.454 191.446 399.432 191.559 399.387 191.619C399.342 191.679 399.267 191.709 399.162 191.709H391.017ZM403.549 181.381V197.75H402.469V181.381H403.549ZM408.526 186.556V197.75H407.457V186.556H408.526ZM408.987 182.697C408.987 182.832 408.957 182.96 408.897 183.08C408.845 183.192 408.773 183.294 408.683 183.384C408.593 183.474 408.488 183.545 408.368 183.597C408.248 183.65 408.121 183.676 407.986 183.676C407.851 183.676 407.723 183.65 407.603 183.597C407.483 183.545 407.378 183.474 407.288 183.384C407.198 183.294 407.127 183.192 407.075 183.08C407.022 182.96 406.996 182.832 406.996 182.697C406.996 182.562 407.022 182.435 407.075 182.315C407.127 182.187 407.198 182.079 407.288 181.989C407.378 181.899 407.483 181.827 407.603 181.775C407.723 181.722 407.851 181.696 407.986 181.696C408.121 181.696 408.248 181.722 408.368 181.775C408.488 181.827 408.593 181.899 408.683 181.989C408.773 182.079 408.845 182.187 408.897 182.315C408.957 182.435 408.987 182.562 408.987 182.697ZM418.609 192.339C417.544 192.376 416.626 192.462 415.853 192.597C415.088 192.725 414.454 192.901 413.952 193.126C413.457 193.351 413.089 193.621 412.849 193.936C412.609 194.244 412.489 194.596 412.489 194.994C412.489 195.369 412.549 195.695 412.669 195.972C412.797 196.242 412.962 196.467 413.164 196.647C413.374 196.82 413.614 196.947 413.884 197.03C414.154 197.112 414.436 197.154 414.728 197.154C415.163 197.154 415.561 197.109 415.921 197.019C416.288 196.921 416.626 196.79 416.933 196.625C417.248 196.452 417.541 196.25 417.811 196.017C418.081 195.785 418.347 195.534 418.609 195.264V192.339ZM412.028 188.142C412.613 187.557 413.228 187.115 413.873 186.815C414.518 186.515 415.249 186.365 416.067 186.365C416.667 186.365 417.192 186.462 417.642 186.657C418.092 186.845 418.463 187.119 418.756 187.479C419.056 187.831 419.281 188.262 419.431 188.772C419.581 189.275 419.656 189.837 419.656 190.46V197.75H419.228C419.003 197.75 418.864 197.645 418.812 197.435L418.654 195.995C418.347 196.295 418.039 196.565 417.732 196.805C417.432 197.045 417.117 197.247 416.787 197.412C416.457 197.577 416.101 197.705 415.718 197.795C415.336 197.885 414.916 197.93 414.458 197.93C414.076 197.93 413.704 197.874 413.344 197.761C412.984 197.649 412.662 197.476 412.377 197.244C412.099 197.011 411.874 196.715 411.702 196.355C411.537 195.987 411.454 195.549 411.454 195.039C411.454 194.566 411.589 194.127 411.859 193.722C412.129 193.317 412.553 192.965 413.131 192.665C413.708 192.365 414.447 192.125 415.347 191.945C416.254 191.765 417.342 191.66 418.609 191.63V190.46C418.609 189.425 418.384 188.63 417.934 188.075C417.492 187.512 416.832 187.231 415.954 187.231C415.414 187.231 414.953 187.306 414.571 187.456C414.196 187.606 413.877 187.771 413.614 187.951C413.352 188.131 413.138 188.296 412.973 188.446C412.808 188.596 412.669 188.671 412.557 188.671C412.474 188.671 412.407 188.652 412.354 188.615C412.302 188.577 412.257 188.529 412.219 188.469L412.028 188.142ZM424.321 195.309C424.756 195.954 425.233 196.407 425.75 196.67C426.275 196.925 426.864 197.052 427.516 197.052C428.184 197.052 428.765 196.932 429.26 196.692C429.763 196.452 430.179 196.111 430.509 195.669C430.846 195.219 431.098 194.675 431.263 194.037C431.428 193.4 431.51 192.684 431.51 191.889C431.51 190.344 431.203 189.181 430.588 188.401C429.973 187.621 429.11 187.231 428 187.231C427.205 187.231 426.511 187.422 425.919 187.805C425.326 188.187 424.794 188.72 424.321 189.402V195.309ZM424.321 188.502C424.809 187.842 425.379 187.325 426.031 186.95C426.684 186.567 427.441 186.376 428.304 186.376C428.979 186.376 429.583 186.5 430.115 186.747C430.648 186.995 431.098 187.351 431.465 187.816C431.84 188.281 432.125 188.855 432.32 189.537C432.515 190.212 432.613 190.981 432.613 191.844C432.613 192.751 432.504 193.58 432.286 194.33C432.069 195.072 431.75 195.71 431.33 196.242C430.918 196.767 430.411 197.176 429.811 197.469C429.211 197.754 428.525 197.896 427.753 197.896C426.958 197.896 426.279 197.746 425.716 197.446C425.161 197.139 424.681 196.685 424.276 196.085L424.198 197.469C424.175 197.656 424.074 197.75 423.894 197.75H423.241V181.381H424.321V188.502ZM436.815 181.381V197.75H435.735V181.381H436.815ZM448.452 191.022C448.452 190.422 448.366 189.886 448.194 189.414C448.029 188.934 447.792 188.529 447.485 188.199C447.177 187.869 446.81 187.617 446.382 187.445C445.962 187.265 445.497 187.175 444.987 187.175C444.41 187.175 443.892 187.265 443.435 187.445C442.977 187.625 442.58 187.884 442.242 188.221C441.912 188.559 441.646 188.964 441.444 189.436C441.241 189.909 441.106 190.437 441.039 191.022H448.452ZM440.982 191.709V191.922C440.982 192.762 441.08 193.501 441.275 194.139C441.47 194.776 441.747 195.312 442.107 195.747C442.467 196.175 442.902 196.497 443.412 196.715C443.922 196.932 444.492 197.041 445.122 197.041C445.685 197.041 446.172 196.981 446.585 196.861C446.997 196.734 447.342 196.595 447.62 196.445C447.905 196.287 448.13 196.149 448.295 196.029C448.46 195.901 448.58 195.837 448.655 195.837C448.752 195.837 448.827 195.875 448.88 195.95L449.172 196.31C448.992 196.535 448.752 196.745 448.452 196.94C448.16 197.135 447.83 197.304 447.462 197.446C447.102 197.581 446.712 197.69 446.292 197.773C445.88 197.855 445.464 197.896 445.044 197.896C444.279 197.896 443.581 197.765 442.951 197.502C442.321 197.232 441.781 196.842 441.331 196.332C440.881 195.822 440.532 195.2 440.285 194.465C440.045 193.722 439.925 192.875 439.925 191.922C439.925 191.12 440.037 190.381 440.262 189.706C440.495 189.024 440.825 188.439 441.252 187.951C441.687 187.456 442.216 187.07 442.839 186.792C443.469 186.515 444.181 186.376 444.976 186.376C445.606 186.376 446.191 186.485 446.731 186.702C447.271 186.92 447.74 187.239 448.137 187.659C448.535 188.071 448.846 188.581 449.071 189.189C449.304 189.796 449.42 190.494 449.42 191.281C449.42 191.446 449.397 191.559 449.352 191.619C449.307 191.679 449.232 191.709 449.127 191.709H440.982ZM452.075 196.884C452.075 196.741 452.101 196.606 452.153 196.479C452.206 196.351 452.277 196.242 452.367 196.152C452.465 196.055 452.573 195.98 452.693 195.927C452.821 195.867 452.96 195.837 453.11 195.837C453.252 195.837 453.387 195.867 453.515 195.927C453.642 195.98 453.751 196.055 453.841 196.152C453.938 196.242 454.013 196.351 454.066 196.479C454.126 196.606 454.156 196.741 454.156 196.884C454.156 197.034 454.126 197.172 454.066 197.3C454.013 197.42 453.938 197.529 453.841 197.626C453.751 197.716 453.642 197.788 453.515 197.84C453.387 197.893 453.252 197.919 453.11 197.919C452.817 197.919 452.57 197.821 452.367 197.626C452.172 197.424 452.075 197.176 452.075 196.884ZM475.686 195.072C475.761 195.072 475.824 195.099 475.877 195.151L476.327 195.635C475.997 195.987 475.637 196.306 475.247 196.591C474.864 196.869 474.441 197.109 473.976 197.311C473.518 197.506 473.012 197.656 472.457 197.761C471.909 197.874 471.306 197.93 470.646 197.93C469.543 197.93 468.531 197.739 467.608 197.356C466.693 196.966 465.906 196.419 465.246 195.714C464.586 195.001 464.072 194.142 463.704 193.137C463.344 192.132 463.164 191.015 463.164 189.785C463.164 188.577 463.352 187.475 463.727 186.477C464.102 185.48 464.627 184.625 465.302 183.912C465.977 183.192 466.787 182.637 467.732 182.247C468.677 181.85 469.719 181.651 470.859 181.651C471.947 181.651 472.911 181.82 473.751 182.157C474.591 182.495 475.356 182.971 476.046 183.586L475.697 184.092C475.637 184.182 475.543 184.227 475.416 184.227C475.326 184.227 475.179 184.145 474.977 183.98C474.774 183.815 474.493 183.635 474.133 183.44C473.773 183.237 473.323 183.054 472.783 182.889C472.251 182.724 471.609 182.641 470.859 182.641C469.899 182.641 469.018 182.806 468.216 183.136C467.421 183.466 466.734 183.939 466.157 184.554C465.587 185.169 465.141 185.919 464.818 186.804C464.496 187.689 464.334 188.682 464.334 189.785C464.334 190.91 464.496 191.915 464.818 192.8C465.148 193.685 465.598 194.435 466.168 195.05C466.738 195.657 467.409 196.126 468.182 196.456C468.962 196.779 469.802 196.94 470.702 196.94C471.272 196.94 471.778 196.902 472.221 196.827C472.671 196.752 473.083 196.64 473.458 196.49C473.833 196.34 474.182 196.156 474.504 195.939C474.827 195.721 475.146 195.466 475.461 195.174C475.498 195.144 475.536 195.121 475.573 195.106C475.611 195.084 475.648 195.072 475.686 195.072ZM483.111 186.376C483.913 186.376 484.63 186.515 485.26 186.792C485.897 187.062 486.433 187.449 486.868 187.951C487.303 188.454 487.633 189.061 487.858 189.774C488.091 190.479 488.207 191.27 488.207 192.147C488.207 193.025 488.091 193.816 487.858 194.521C487.633 195.226 487.303 195.83 486.868 196.332C486.433 196.835 485.897 197.221 485.26 197.491C484.63 197.761 483.913 197.896 483.111 197.896C482.308 197.896 481.588 197.761 480.951 197.491C480.321 197.221 479.785 196.835 479.342 196.332C478.907 195.83 478.573 195.226 478.341 194.521C478.116 193.816 478.003 193.025 478.003 192.147C478.003 191.27 478.116 190.479 478.341 189.774C478.573 189.061 478.907 188.454 479.342 187.951C479.785 187.449 480.321 187.062 480.951 186.792C481.588 186.515 482.308 186.376 483.111 186.376ZM483.111 197.052C483.778 197.052 484.36 196.94 484.855 196.715C485.357 196.482 485.773 196.152 486.103 195.725C486.441 195.297 486.692 194.784 486.857 194.184C487.022 193.576 487.105 192.897 487.105 192.147C487.105 191.405 487.022 190.73 486.857 190.122C486.692 189.515 486.441 188.997 486.103 188.57C485.773 188.135 485.357 187.801 484.855 187.569C484.36 187.336 483.778 187.22 483.111 187.22C482.443 187.22 481.858 187.336 481.356 187.569C480.861 187.801 480.445 188.135 480.107 188.57C479.777 188.997 479.526 189.515 479.353 190.122C479.188 190.73 479.106 191.405 479.106 192.147C479.106 192.897 479.188 193.576 479.353 194.184C479.526 194.784 479.777 195.297 480.107 195.725C480.445 196.152 480.861 196.482 481.356 196.715C481.858 196.94 482.443 197.052 483.111 197.052ZM491.225 197.75V186.556H491.821C492.009 186.556 492.117 186.65 492.147 186.837L492.249 188.457C492.684 187.835 493.182 187.332 493.745 186.95C494.307 186.567 494.941 186.376 495.646 186.376C496.464 186.376 497.116 186.612 497.604 187.085C498.099 187.557 498.432 188.214 498.605 189.054C498.74 188.596 498.927 188.199 499.167 187.861C499.415 187.524 499.696 187.246 500.011 187.029C500.326 186.804 500.667 186.639 501.035 186.534C501.41 186.429 501.792 186.376 502.182 186.376C502.737 186.376 503.236 186.47 503.679 186.657C504.121 186.837 504.496 187.107 504.804 187.467C505.111 187.827 505.347 188.27 505.512 188.795C505.677 189.32 505.76 189.92 505.76 190.595V197.75H504.691V190.595C504.691 189.5 504.455 188.667 503.982 188.097C503.51 187.52 502.835 187.231 501.957 187.231C501.567 187.231 501.192 187.302 500.832 187.445C500.48 187.587 500.165 187.801 499.887 188.086C499.617 188.364 499.4 188.712 499.235 189.132C499.077 189.552 498.999 190.04 498.999 190.595V197.75H497.919V190.595C497.919 189.507 497.701 188.675 497.266 188.097C496.839 187.52 496.209 187.231 495.376 187.231C494.769 187.231 494.206 187.411 493.689 187.771C493.171 188.131 492.71 188.63 492.305 189.267V197.75H491.225ZM510.41 195.309C510.628 195.631 510.853 195.905 511.085 196.13C511.325 196.347 511.577 196.527 511.839 196.67C512.102 196.805 512.379 196.902 512.672 196.962C512.972 197.022 513.287 197.052 513.617 197.052C514.277 197.052 514.854 196.932 515.349 196.692C515.844 196.452 516.257 196.115 516.587 195.68C516.924 195.237 517.175 194.712 517.34 194.105C517.513 193.49 517.599 192.815 517.599 192.08C517.599 190.415 517.292 189.192 516.677 188.412C516.062 187.625 515.18 187.231 514.033 187.231C513.29 187.231 512.619 187.422 512.019 187.805C511.419 188.187 510.883 188.72 510.41 189.402V195.309ZM510.365 188.57C510.86 187.895 511.438 187.359 512.098 186.961C512.765 186.564 513.512 186.365 514.337 186.365C515.709 186.365 516.778 186.841 517.543 187.794C518.315 188.746 518.702 190.175 518.702 192.08C518.702 192.897 518.593 193.662 518.375 194.375C518.165 195.08 517.85 195.695 517.43 196.22C517.018 196.737 516.508 197.146 515.9 197.446C515.3 197.746 514.607 197.896 513.819 197.896C513.062 197.896 512.405 197.758 511.85 197.48C511.295 197.202 510.815 196.794 510.41 196.254V201.71H509.33V186.556H509.927C510.114 186.556 510.223 186.65 510.253 186.837L510.365 188.57ZM522.926 181.381V197.75H521.846V181.381H522.926ZM534.563 191.022C534.563 190.422 534.477 189.886 534.304 189.414C534.139 188.934 533.903 188.529 533.596 188.199C533.288 187.869 532.921 187.617 532.493 187.445C532.073 187.265 531.608 187.175 531.098 187.175C530.521 187.175 530.003 187.265 529.546 187.445C529.088 187.625 528.691 187.884 528.353 188.221C528.023 188.559 527.757 188.964 527.554 189.436C527.352 189.909 527.217 190.437 527.149 191.022H534.563ZM527.093 191.709V191.922C527.093 192.762 527.191 193.501 527.386 194.139C527.581 194.776 527.858 195.312 528.218 195.747C528.578 196.175 529.013 196.497 529.523 196.715C530.033 196.932 530.603 197.041 531.233 197.041C531.796 197.041 532.283 196.981 532.696 196.861C533.108 196.734 533.453 196.595 533.731 196.445C534.016 196.287 534.241 196.149 534.406 196.029C534.571 195.901 534.691 195.837 534.766 195.837C534.863 195.837 534.938 195.875 534.991 195.95L535.283 196.31C535.103 196.535 534.863 196.745 534.563 196.94C534.271 197.135 533.941 197.304 533.573 197.446C533.213 197.581 532.823 197.69 532.403 197.773C531.991 197.855 531.574 197.896 531.154 197.896C530.389 197.896 529.692 197.765 529.062 197.502C528.432 197.232 527.892 196.842 527.442 196.332C526.992 195.822 526.643 195.2 526.396 194.465C526.156 193.722 526.036 192.875 526.036 191.922C526.036 191.12 526.148 190.381 526.373 189.706C526.606 189.024 526.936 188.439 527.363 187.951C527.798 187.456 528.327 187.07 528.949 186.792C529.579 186.515 530.292 186.376 531.087 186.376C531.717 186.376 532.302 186.485 532.842 186.702C533.382 186.92 533.851 187.239 534.248 187.659C534.646 188.071 534.957 188.581 535.182 189.189C535.414 189.796 535.531 190.494 535.531 191.281C535.531 191.446 535.508 191.559 535.463 191.619C535.418 191.679 535.343 191.709 535.238 191.709H527.093ZM541.46 197.93C540.703 197.93 540.11 197.72 539.683 197.3C539.263 196.88 539.053 196.231 539.053 195.354V187.704H537.444C537.361 187.704 537.294 187.681 537.241 187.636C537.189 187.591 537.163 187.527 537.163 187.445V187.029L539.075 186.894L539.345 182.889C539.36 182.821 539.39 182.761 539.435 182.709C539.48 182.656 539.544 182.63 539.626 182.63H540.133V186.905H543.665V187.704H540.133V195.297C540.133 195.605 540.17 195.871 540.245 196.096C540.328 196.314 540.436 196.494 540.571 196.636C540.714 196.779 540.879 196.884 541.066 196.951C541.254 197.019 541.456 197.052 541.674 197.052C541.944 197.052 542.176 197.015 542.371 196.94C542.566 196.857 542.735 196.771 542.878 196.681C543.02 196.584 543.136 196.497 543.226 196.422C543.316 196.34 543.388 196.299 543.44 196.299C543.5 196.299 543.56 196.336 543.62 196.411L543.913 196.884C543.628 197.199 543.264 197.454 542.821 197.649C542.386 197.836 541.933 197.93 541.46 197.93ZM553.921 191.022C553.921 190.422 553.835 189.886 553.662 189.414C553.497 188.934 553.261 188.529 552.954 188.199C552.646 187.869 552.279 187.617 551.851 187.445C551.431 187.265 550.966 187.175 550.456 187.175C549.879 187.175 549.361 187.265 548.904 187.445C548.446 187.625 548.049 187.884 547.711 188.221C547.381 188.559 547.115 188.964 546.912 189.436C546.71 189.909 546.575 190.437 546.507 191.022H553.921ZM546.451 191.709V191.922C546.451 192.762 546.549 193.501 546.744 194.139C546.939 194.776 547.216 195.312 547.576 195.747C547.936 196.175 548.371 196.497 548.881 196.715C549.391 196.932 549.961 197.041 550.591 197.041C551.154 197.041 551.641 196.981 552.054 196.861C552.466 196.734 552.811 196.595 553.089 196.445C553.374 196.287 553.599 196.149 553.764 196.029C553.929 195.901 554.049 195.837 554.124 195.837C554.221 195.837 554.296 195.875 554.349 195.95L554.641 196.31C554.461 196.535 554.221 196.745 553.921 196.94C553.629 197.135 553.299 197.304 552.931 197.446C552.571 197.581 552.181 197.69 551.761 197.773C551.349 197.855 550.932 197.896 550.512 197.896C549.747 197.896 549.05 197.765 548.42 197.502C547.79 197.232 547.25 196.842 546.8 196.332C546.35 195.822 546.001 195.2 545.754 194.465C545.514 193.722 545.394 192.875 545.394 191.922C545.394 191.12 545.506 190.381 545.731 189.706C545.964 189.024 546.294 188.439 546.721 187.951C547.156 187.456 547.685 187.07 548.307 186.792C548.937 186.515 549.65 186.376 550.445 186.376C551.075 186.376 551.66 186.485 552.2 186.702C552.74 186.92 553.209 187.239 553.606 187.659C554.004 188.071 554.315 188.581 554.54 189.189C554.772 189.796 554.889 190.494 554.889 191.281C554.889 191.446 554.866 191.559 554.821 191.619C554.776 191.679 554.701 191.709 554.596 191.709H546.451ZM557.543 196.884C557.543 196.741 557.57 196.606 557.622 196.479C557.675 196.351 557.746 196.242 557.836 196.152C557.933 196.055 558.042 195.98 558.162 195.927C558.29 195.867 558.428 195.837 558.578 195.837C558.721 195.837 558.856 195.867 558.983 195.927C559.111 195.98 559.22 196.055 559.31 196.152C559.407 196.242 559.482 196.351 559.535 196.479C559.595 196.606 559.625 196.741 559.625 196.884C559.625 197.034 559.595 197.172 559.535 197.3C559.482 197.42 559.407 197.529 559.31 197.626C559.22 197.716 559.111 197.788 558.983 197.84C558.856 197.893 558.721 197.919 558.578 197.919C558.286 197.919 558.038 197.821 557.836 197.626C557.641 197.424 557.543 197.176 557.543 196.884Z" fill="black"/>
</g>
<defs>
<clipPath id="clip0_19_2">
<rect width="800" height="218.75" fill="white"/>
</clipPath>
</defs>
</svg>
